<?xml version="1.0" standalone="no"?>
<!DOCTYPE svg PUBLIC "-//W3C//DTD SVG 20010904//EN"
 "http://www.w3.org/TR/2001/REC-SVG-20010904/DTD/svg10.dtd">
<svg version="1.0" xmlns="http://www.w3.org/2000/svg"
 width="1763.000000pt" height="2560.000000pt" viewBox="0 0 1763.000000 2560.000000"
 preserveAspectRatio="xMidYMid meet">

<g transform="translate(0.000000,2560.000000) scale(0.100000,-0.100000)"
fill="#000000" stroke="none">
<path d="M0 12800 l0 -12800 8815 0 8815 0 0 12800 0 12800 -8815 0 -8815 0 0
-12800z m15370 10570 l0 -1599 -131 -3 c-72 -2 -133 -1 -135 1 -5 6 -5 3196 0
3202 2 2 63 3 135 1 l131 -3 0 -1599z m-13050 0 l0 -1600 -140 0 -140 0 0
1600 0 1600 140 0 140 0 0 -1600z m360 0 l0 -1600 -137 0 -138 0 0 1600 0
1600 138 0 137 0 0 -1600z m-1220 -57 l0 -1543 -187 0 -188 0 2 1542 c2 849 3
1543 3 1543 0 0 83 0 185 0 l185 0 0 -1542z m-443 -73 l3 -1470 -115 0 -115 0
0 1473 0 1472 112 -2 113 -2 2 -1471z m2391 -52 l2 -1418 -142 0 -143 0 3
1421 2 1420 138 -3 137 -3 3 -1417z m6070 0 l2 -1418 -235 0 -235 0 0 1413 c0
778 3 1417 7 1421 4 3 108 5 232 4 l226 -3 3 -1417z m-7558 -13 l0 -1405 -190
0 -190 0 0 1405 0 1405 190 0 190 0 0 -1405z m1160 -67 l0 -1338 -180 0 -180
0 0 1333 c0 734 2 1336 4 1338 2 2 83 4 180 4 l176 0 0 -1337z m1010 0 l0
-1338 -140 0 -140 0 0 1333 c0 734 2 1336 4 1338 2 2 65 4 140 4 l136 0 0
-1337z m-335 -3 l0 -1335 -140 0 -140 0 0 1335 0 1335 140 0 140 0 0 -1335z
m765 0 l0 -1335 -180 0 -180 0 0 1335 0 1335 180 0 180 0 0 -1335z m4420 0 l0
-1335 -295 0 -295 0 0 1335 0 1335 295 0 295 0 0 -1335z m1110 0 l0 -1335
-230 0 -230 0 0 1335 0 1335 230 0 230 0 0 -1335z m860 0 l0 -1335 -365 0
-365 0 0 1335 0 1335 365 0 365 0 0 -1335z m-5522 1283 c204 -36 242 -45 242
-60 0 -19 -102 -622 -180 -1063 -48 -273 -203 -1177 -237 -1385 -9 -52 -19
-98 -22 -102 -4 -4 -99 10 -211 32 -113 22 -226 43 -252 46 -40 6 -48 10 -48
28 0 12 18 120 39 241 22 121 65 364 96 540 31 176 78 442 105 590 51 281 91
511 160 900 47 269 48 275 58 275 4 0 116 -19 250 -42z m586 2 c125 -22 236
-40 247 -40 10 0 19 -7 19 -15 0 -8 -31 -196 -70 -417 -38 -222 -106 -612
-150 -868 -44 -256 -96 -557 -115 -670 -20 -113 -51 -294 -70 -404 -19 -109
-36 -200 -37 -202 -2 -2 -118 19 -258 46 -139 28 -255 50 -258 50 -2 0 -2 7 1
15 4 8 22 108 42 222 33 190 121 684 195 1088 16 88 43 241 60 340 17 99 37
216 45 260 8 44 35 195 61 335 44 248 54 300 58 300 1 0 105 -18 230 -40z
m5751 -1 c99 -17 197 -33 218 -36 21 -3 39 -9 42 -12 2 -4 -14 -108 -36 -232
-21 -123 -75 -435 -120 -694 -44 -258 -113 -661 -154 -895 -41 -234 -86 -497
-101 -585 -14 -88 -27 -161 -28 -162 -2 -2 -440 80 -494 92 -20 5 -22 10 -17
38 3 18 39 221 80 452 42 231 107 598 145 815 112 631 220 1234 225 1248 3 9
14 12 32 8 16 -3 109 -20 208 -37z m624 0 c130 -23 239 -44 243 -48 3 -3 2
-28 -3 -56 -17 -96 -191 -1104 -269 -1560 -43 -253 -98 -572 -122 -708 l-43
-248 -25 5 c-14 3 -126 24 -250 47 -124 23 -229 45 -234 50 -5 4 22 180 63
406 179 1003 257 1442 312 1753 32 184 61 350 64 368 3 17 11 32 17 32 5 0
117 -19 247 -41z m3690 -474 c50 -275 99 -556 110 -625 11 -69 54 -312 96
-540 106 -575 157 -871 153 -875 -3 -3 -502 -103 -505 -101 -4 3 -78 426 -164
936 -36 218 -55 326 -138 800 -17 96 -51 297 -76 445 -25 149 -50 294 -55 324
-7 38 -7 57 0 61 6 4 113 24 238 44 125 21 229 40 231 42 3 2 8 1 12 -3 4 -5
48 -233 98 -508z m521 507 c0 -4 24 -143 54 -307 30 -165 78 -433 106 -595 28
-162 94 -529 145 -815 127 -701 148 -826 141 -832 -6 -6 -445 -93 -486 -96
-21 -2 -25 3 -32 43 -4 25 -42 243 -84 485 -121 701 -140 813 -194 1130 -28
165 -73 426 -100 580 -27 154 -51 291 -52 304 -3 24 0 25 232 66 258 47 270
49 270 37z m-2880 -151 c5 -21 13 -59 16 -85 8 -57 17 -50 33 29 20 97 19 95
57 95 l34 0 0 -160 0 -160 -25 0 -25 0 -1 108 -2 107 -21 -108 c-27 -140 -43
-141 -71 -2 l-20 100 -3 -102 c-3 -102 -3 -103 -27 -103 l-25 0 0 160 0 160
35 0 c31 0 35 -3 45 -39z m323 -109 c15 -81 27 -153 27 -160 0 -7 -11 -12 -25
-12 -20 0 -25 6 -31 35 -5 30 -10 35 -35 35 -22 0 -29 -5 -29 -19 0 -35 -12
-51 -37 -51 -22 0 -25 3 -20 28 3 15 16 87 28 160 l23 132 36 0 36 0 27 -148z
m127 -12 l0 -160 -30 0 -30 0 0 160 0 160 30 0 30 0 0 -160z m183 143 c8 -10
17 -27 19 -38 2 -15 -3 -21 -24 -23 -21 -2 -28 1 -28 13 0 11 -7 15 -22 13
-39 -5 -33 -37 15 -81 24 -23 49 -52 55 -64 47 -87 -67 -169 -133 -97 -35 37
-33 64 4 64 21 0 30 -6 34 -21 4 -15 12 -20 29 -17 41 6 33 35 -26 94 -53 52
-61 69 -57 119 3 31 39 55 81 55 22 0 43 -7 53 -17z m301 -4 c25 -20 26 -23
26 -139 0 -117 0 -119 -27 -140 -21 -17 -38 -20 -82 -18 l-56 3 -3 145 c-1 79
0 150 2 157 9 22 109 17 140 -8z m226 -4 c0 -23 -4 -25 -45 -25 l-45 0 0 -40
c0 -39 1 -40 35 -40 31 0 35 -3 35 -25 0 -22 -4 -25 -35 -25 -35 0 -35 0 -35
-45 l0 -45 50 0 c47 0 50 -2 50 -25 0 -25 -1 -25 -80 -25 l-80 0 0 160 0 160
75 0 c73 0 75 -1 75 -25z m-962 -472 c12 -3 22 -1 22 6 0 6 7 11 15 11 21 0
19 -16 -6 -41 -13 -13 -27 -18 -37 -13 -34 14 -62 16 -62 5 0 -6 -7 -11 -15
-11 -13 0 -14 4 -4 23 16 29 30 38 49 31 8 -4 25 -9 38 -11z m-5678 -178 l0
-145 -782 2 -783 3 -3 129 c-1 72 0 136 2 143 4 11 154 13 786 13 l780 0 0
-145z m4608 119 c12 -4 30 -20 38 -35 20 -39 5 -95 -47 -173 -21 -32 -39 -60
-39 -62 0 -2 21 -4 46 -4 41 0 45 -2 42 -22 -3 -21 -9 -23 -75 -26 l-73 -3 0
28 c0 15 14 48 31 73 71 105 91 180 49 180 -13 0 -22 -9 -26 -25 -8 -33 -54
-36 -54 -4 0 55 49 88 108 73z m903 -317 c-5 -5 -19 -6 -31 -2 -20 6 -21 12
-18 73 3 66 3 67 -24 70 -27 3 -27 3 -30 -70 -3 -66 -5 -73 -24 -76 -29 -4
-34 27 -34 189 l0 129 30 0 30 0 0 -60 c0 -60 0 -60 30 -60 l30 0 -5 59 c-4
59 -4 60 23 63 l27 3 3 -154 c1 -86 -2 -159 -7 -164z m212 292 c14 -17 17 -41
17 -136 0 -108 -1 -115 -25 -138 -24 -25 -65 -32 -100 -19 -32 13 -45 59 -45
164 0 100 1 102 30 132 27 26 36 30 68 25 20 -4 45 -16 55 -28z m370 20 c14
-6 30 -22 36 -36 14 -31 15 -30 -11 -37 -16 -4 -28 1 -39 16 -19 24 -49 19
-49 -9 0 -9 23 -41 51 -69 39 -40 52 -60 56 -92 5 -34 1 -44 -20 -66 -36 -36
-80 -35 -118 3 -28 28 -39 61 -20 61 5 0 16 3 25 6 11 4 19 -2 26 -20 6 -16
17 -26 30 -26 11 0 20 2 20 4 0 2 3 11 6 19 3 10 -15 38 -50 76 -48 52 -56 67
-56 99 0 63 55 97 113 71z m-1213 -56 c21 -113 22 -114 37 -48 7 33 15 70 18
83 4 18 12 22 43 22 l37 0 -4 -157 c-1 -87 -5 -160 -6 -161 -2 -2 -13 -1 -26
3 -21 7 -22 10 -15 108 8 122 -5 118 -29 -11 -26 -137 -37 -134 -67 16 -10 53
-21 98 -23 101 -3 2 -5 -46 -5 -108 0 -111 0 -112 -22 -109 -23 3 -23 6 -26
161 l-3 157 40 0 40 0 11 -57z m248 -100 l-3 -158 -25 0 -25 0 -3 158 -3 157
31 0 31 0 -3 -157z m112 22 l0 -135 40 0 c36 0 40 -2 40 -25 0 -26 -1 -26 -67
-23 l-68 3 -3 158 -3 157 31 0 30 0 0 -135z m700 110 c0 -23 -4 -25 -45 -25
-45 0 -45 0 -45 -34 0 -32 3 -35 33 -38 24 -2 33 -8 35 -25 3 -20 -1 -23 -32
-23 l-36 0 0 -51 0 -52 36 6 c44 7 64 0 64 -23 0 -23 -12 -27 -90 -26 l-65 1
-3 158 -3 157 76 0 c73 0 75 -1 75 -25z m480 5 c18 -18 20 -33 20 -135 0 -101
-2 -117 -19 -134 -22 -22 -72 -34 -117 -29 l-29 3 -3 158 -3 157 66 0 c52 0
69 -4 85 -20z m220 -5 c0 -23 -4 -25 -45 -25 -45 0 -45 0 -45 -35 0 -33 2 -35
35 -35 31 0 35 -3 35 -25 0 -22 -4 -25 -35 -25 l-35 0 0 -50 0 -51 48 3 c44 3
47 2 47 -22 0 -23 -4 -25 -55 -28 -105 -5 -100 -14 -100 163 l0 155 75 0 c73
0 75 -1 75 -25z m-6642 -435 l3 -140 -848 2 -848 3 -3 129 c-1 72 -1 135 1
140 3 8 265 10 848 9 l844 -3 3 -140z m4802 -115 c0 -23 -4 -25 -45 -25 l-45
0 0 -40 c0 -39 1 -40 35 -40 31 0 35 -3 35 -25 0 -22 -4 -25 -35 -25 -35 0
-35 0 -35 -45 l0 -45 45 0 c41 0 45 -2 45 -25 0 -24 -2 -25 -75 -25 l-75 0 0
160 0 160 75 0 c73 0 75 -1 75 -25z m101 -24 l16 -45 15 45 c12 36 19 45 43
47 20 3 26 0 23 -10 -3 -7 -15 -43 -28 -79 l-23 -66 27 -69 c32 -85 32 -94 1
-94 -20 0 -26 7 -36 43 -16 54 -25 65 -34 36 -18 -63 -28 -79 -51 -79 -30 0
-30 3 4 92 l28 73 -23 60 c-39 100 -38 97 -7 93 23 -2 31 -11 45 -47z m287 22
c3 -21 -1 -23 -42 -23 l-46 0 0 -39 c0 -37 2 -40 33 -43 24 -2 32 -8 32 -23 0
-15 -8 -21 -32 -23 -32 -3 -33 -5 -33 -48 l0 -44 45 0 c41 0 45 -2 45 -25 0
-24 -2 -25 -75 -25 l-75 0 0 160 0 161 73 -3 c66 -3 72 -5 75 -25z m132 -55
c8 -42 18 -79 21 -82 3 -4 12 27 19 66 17 98 17 98 56 98 l34 0 0 -160 0 -160
-25 0 c-24 0 -24 1 -27 103 l-3 102 -19 -103 c-15 -82 -22 -102 -35 -100 -11
2 -22 33 -37 108 l-22 105 -1 -107 -1 -108 -25 0 -25 0 0 161 0 160 37 -3 38
-3 15 -77z m337 47 c23 -26 28 -59 17 -103 -7 -26 -51 -52 -88 -52 -24 0 -25
-3 -28 -62 -3 -60 -4 -63 -30 -66 l-28 -3 0 162 0 162 67 -6 c57 -4 71 -9 90
-32z m113 -100 l0 -135 45 0 c41 0 45 -2 45 -25 0 -24 -2 -25 -75 -25 l-75 0
0 153 c0 85 3 157 7 160 3 4 17 7 30 7 23 0 23 0 23 -135z m252 -15 c34 -182
34 -172 1 -168 -23 2 -29 8 -31 36 -3 28 -7 32 -33 32 -22 0 -29 -5 -29 -19 0
-35 -12 -51 -36 -51 -13 0 -24 4 -24 8 0 14 50 286 55 300 3 8 17 12 37 10
l33 -3 27 -145z m210 120 c24 -30 24 -101 0 -131 -18 -21 -18 -24 -2 -68 35
-92 35 -91 1 -91 -27 0 -31 4 -45 54 -9 30 -16 59 -16 65 0 6 -7 11 -15 11
-12 0 -15 -14 -15 -65 l0 -65 -30 0 -30 0 0 161 0 162 67 -6 c53 -4 71 -10 85
-27z m216 3 c3 -21 -1 -23 -42 -23 l-46 0 0 -40 c0 -39 1 -40 35 -40 31 0 35
-3 35 -25 0 -22 -4 -25 -35 -25 -35 0 -35 0 -35 -45 l0 -45 45 0 c41 0 45 -2
45 -25 0 -24 -2 -25 -75 -25 l-75 0 0 160 0 161 73 -3 c66 -3 72 -5 75 -25z
m157 21 c14 -6 45 -53 45 -69 0 -13 -54 -3 -65 12 -15 20 -45 11 -45 -13 0
-10 25 -43 55 -75 42 -44 55 -65 55 -88 0 -76 -97 -114 -147 -57 -28 33 -27
60 3 64 14 2 27 -6 38 -22 20 -31 32 -33 46 -6 9 17 4 28 -39 73 -56 59 -74
96 -65 133 11 43 69 67 119 48z m-6607 -246 l3 -138 -655 0 -655 0 4 133 c2
72 4 135 5 140 0 4 291 6 648 5 l647 -3 3 -137z m2 -343 l0 -145 -782 2 -783
3 -3 129 c-1 72 0 136 2 143 4 11 154 13 786 13 l780 0 0 -145z m6424 16 c15
-16 19 -37 21 -117 3 -108 -5 -149 -32 -170 -27 -21 -86 -17 -111 6 -20 19
-22 32 -23 123 -2 123 0 138 14 156 29 35 97 36 131 2z m204 -7 c22 -25 28
-44 15 -44 -5 0 -18 -3 -30 -6 -17 -5 -23 -2 -23 9 0 16 -26 30 -41 21 -20
-12 -7 -48 29 -82 77 -72 91 -123 47 -167 -41 -42 -105 -31 -133 22 -17 32
-15 40 14 46 20 3 27 -1 34 -19 11 -28 45 -32 54 -8 8 21 -15 57 -54 85 -57
43 -72 116 -32 152 37 33 85 29 120 -9z m-1467 -64 c6 -50 15 -93 20 -95 4 -3
10 14 14 37 20 131 25 148 51 148 31 0 31 -5 -6 -173 -16 -76 -30 -140 -30
-143 0 -3 -12 -4 -27 -2 -27 3 -29 6 -60 153 -18 83 -32 153 -33 158 0 4 13 7
29 7 29 0 29 0 42 -90z m289 65 c0 -23 -4 -25 -45 -25 l-45 0 0 -40 c0 -39 1
-40 35 -40 31 0 35 -3 35 -25 0 -22 -4 -25 -36 -25 l-35 0 3 -42 3 -43 48 -3
c43 -3 48 -5 45 -25 -3 -20 -8 -22 -77 -22 l-75 0 -1 135 c-2 191 -7 180 76
180 67 0 69 -1 69 -25z m130 -52 c14 -40 29 -75 33 -79 4 -4 7 29 7 74 0 81 0
82 25 82 l26 0 -3 -157 -3 -158 -24 0 c-22 0 -28 10 -57 95 l-32 95 -1 -97
c-1 -98 -1 -98 -26 -98 l-25 0 0 161 0 160 27 -3 c23 -3 30 -12 53 -75z m279
58 c26 -26 34 -76 29 -172 -6 -103 -21 -121 -108 -127 l-60 -4 0 161 0 161 60
0 c46 0 65 -5 79 -19z m141 -142 l0 -160 -27 3 -28 3 -3 158 -3 157 31 0 30 0
0 -161z m190 151 c25 -14 40 -70 40 -153 0 -120 -30 -157 -126 -157 l-44 0 0
160 0 160 56 0 c30 0 64 -5 74 -10z m-6190 -370 l0 -140 -845 0 -845 0 0 140
0 140 845 0 845 0 0 -140z m5095 -255 l30 -80 5 80 c5 74 7 80 28 83 l22 3 0
-160 0 -161 -24 0 c-22 0 -28 9 -52 85 -16 47 -31 85 -34 85 -3 0 -3 -38 -1
-85 l3 -85 -31 0 -31 0 0 153 c0 85 3 157 7 161 4 4 16 6 28 4 15 -2 27 -22
50 -83z m280 60 c24 -23 25 -31 25 -135 0 -61 -4 -120 -10 -130 -12 -23 -59
-39 -94 -33 -14 3 -36 17 -47 32 -19 23 -20 37 -17 139 3 106 5 115 27 133 33
27 86 25 116 -6z m245 3 c5 -13 15 -52 23 -88 15 -70 13 -72 39 45 13 59 13
60 48 60 l35 0 3 -157 3 -158 -26 0 -25 0 0 103 c-1 113 -11 113 -29 2 -15
-92 -20 -105 -35 -105 -12 0 -27 52 -41 145 -3 22 -10 47 -16 55 -7 10 -9 -18
-7 -90 l2 -105 -27 -3 -27 -3 0 154 c0 84 3 157 7 160 3 4 19 7 35 7 20 0 31
-7 38 -22z m250 -107 c0 -106 3 -131 16 -142 14 -11 18 -10 30 6 10 14 14 53
14 142 l0 123 25 0 25 0 0 -139 c0 -119 -3 -142 -18 -161 -26 -32 -93 -33
-124 -2 -21 21 -23 34 -27 147 -1 69 0 132 3 140 3 8 17 15 31 15 l25 0 0
-129z m247 39 l32 -85 3 85 c3 79 4 85 26 88 l22 3 0 -160 0 -161 -24 0 c-20
0 -27 11 -57 93 l-34 92 -3 -92 c-3 -91 -3 -93 -27 -93 l-25 0 0 153 c0 85 3
157 7 161 4 4 16 6 27 4 16 -2 28 -24 53 -88z m256 79 c37 -17 47 -50 47 -160
0 -93 -2 -102 -25 -124 -20 -21 -34 -25 -85 -25 l-60 0 0 153 c0 85 3 157 7
160 10 11 90 8 116 -4z m238 -8 c22 -18 24 -28 27 -126 4 -124 -6 -159 -51
-174 -38 -14 -92 1 -107 29 -6 10 -10 69 -10 130 0 104 1 112 25 135 30 31 83
33 116 6z m-6611 -156 l0 -145 -1080 0 -1080 0 0 145 0 145 1080 0 1080 0 0
-145z m8355 -1985 l0 -1480 -157 0 -158 0 0 1480 0 1480 158 0 157 0 0 -1480z
m415 0 l0 -1481 -157 3 -158 3 -2 1478 -3 1477 160 0 160 0 0 -1480z m-15830
-42 l0 -1438 -135 0 -135 0 0 1438 0 1437 135 0 135 0 0 -1437z m14180 -23 l0
-1415 -237 2 c-131 2 -237 6 -235 11 1 4 2 639 2 1412 l0 1405 235 0 235 0 0
-1415z m-3010 1258 c0 -10 99 -518 175 -903 31 -157 81 -415 111 -575 30 -159
91 -474 135 -698 44 -225 79 -411 77 -413 -2 -2 -110 -22 -239 -44 -129 -23
-252 -45 -274 -50 -22 -5 -43 -6 -46 -2 -6 7 -115 579 -194 1012 -24 135 -67
364 -94 510 -28 146 -83 436 -122 645 -39 209 -73 383 -75 387 -9 14 26 24
276 79 298 66 270 61 270 52z m-1725 -37 c25 -15 52 -37 60 -50 8 -12 26 -29
40 -36 39 -21 30 -37 -37 -59 -77 -26 -98 -27 -98 -2 0 10 -9 29 -19 42 -16
20 -29 24 -71 24 -47 0 -55 -3 -86 -37 l-34 -38 0 -130 c0 -146 10 -179 60
-205 85 -44 190 11 190 100 0 24 -2 25 -59 25 -33 0 -62 4 -65 9 -4 5 -9 30
-12 55 l-7 46 133 0 133 0 -5 -97 c-6 -113 -25 -163 -83 -211 -105 -86 -282
-63 -360 47 l-30 43 -3 168 c-3 152 -1 172 16 207 27 51 81 101 128 119 59 22
153 13 209 -20z m1119 -279 c60 -320 105 -555 201 -1037 30 -151 70 -363 90
-470 20 -107 61 -319 91 -470 29 -152 54 -280 54 -286 0 -5 -73 -22 -162 -37
-90 -15 -201 -35 -248 -43 -47 -9 -98 -16 -114 -17 l-30 -2 -57 300 c-31 165
-77 406 -102 535 -26 129 -60 314 -77 410 -36 206 -56 315 -155 830 -67 345
-85 442 -88 475 0 9 467 121 518 124 18 1 25 -23 79 -312z m1846 -1022 l0
-1335 -305 0 -305 0 0 1335 0 1335 305 0 305 0 0 -1335z m592 3 l-2 -1333
-233 0 -232 0 -3 1333 -2 1332 237 0 238 0 -3 -1332z m588 -3 l0 -1335 -242 0
-243 0 0 1335 0 1335 243 0 242 0 0 -1335z m1410 0 l0 -1335 -370 0 -370 0 0
1335 0 1335 370 0 370 0 0 -1335z m-7874 1263 c-3 -34 -8 -63 -11 -66 -2 -3
-17 0 -32 6 -15 6 -45 13 -66 17 l-38 6 4 -238 c2 -131 8 -250 12 -265 l7 -28
-81 0 c-83 0 -90 4 -71 41 10 17 16 476 7 485 -4 4 -75 -9 -115 -22 -24 -7
-24 -6 -17 52 4 32 9 62 12 67 2 4 92 7 200 7 l196 0 -7 -62z m431 1 c-3 -33
-8 -63 -11 -66 -3 -3 -18 -1 -33 5 -15 6 -45 13 -66 17 l-38 6 4 -238 c2 -131
7 -250 11 -265 l8 -28 -82 0 c-81 0 -82 0 -74 23 4 12 10 132 11 265 l4 244
-43 -7 c-24 -4 -51 -11 -60 -16 -35 -19 -41 -11 -33 49 4 31 9 60 12 65 2 4
92 7 200 7 l196 0 -6 -61z m-1756 14 c0 -24 20 -79 52 -147 l52 -109 53 117
c28 64 52 130 52 146 l0 30 86 0 86 0 -8 -27 c-11 -35 -11 -528 0 -565 l8 -28
-82 0 -82 0 7 28 c5 15 10 95 12 177 l3 150 -51 -112 c-50 -109 -53 -113 -84
-113 -30 0 -33 4 -86 113 l-54 112 -3 -115 c-2 -103 3 -149 23 -217 7 -23 6
-23 -75 -23 l-82 0 8 28 c11 35 11 540 0 570 -8 22 -7 22 78 22 l86 0 1 -37z
m793 -1 c-8 -50 106 -501 136 -539 11 -14 20 -30 20 -35 0 -5 -37 -8 -82 -6
l-83 3 3 37 c2 21 -2 56 -8 78 l-11 40 -84 0 -84 0 -11 -41 c-6 -23 -10 -57
-8 -78 l3 -36 -82 -3 c-46 -2 -83 -1 -83 1 0 3 11 24 24 48 32 59 139 484 133
526 -3 17 -3 34 0 37 4 3 55 6 115 6 l108 0 -6 -38z m1370 16 c-4 -13 -9 -71
-11 -130 l-4 -108 90 0 91 0 0 78 c0 72 -8 124 -25 165 -6 15 1 17 80 17 79 0
86 -2 80 -17 -20 -48 -25 -105 -25 -301 0 -167 3 -220 15 -249 8 -19 15 -39
15 -44 0 -5 -38 -9 -85 -9 -86 0 -103 8 -73 38 12 12 25 189 15 214 -3 10 -28
12 -91 10 l-87 -4 4 -106 c2 -59 7 -117 11 -129 8 -23 7 -23 -74 -23 l-82 0 8
33 c11 41 12 511 1 555 l-9 32 82 0 c81 0 82 0 74 -22z m712 -9 c-7 -38 105
-486 134 -536 11 -19 20 -38 20 -44 0 -5 -36 -9 -80 -9 l-80 0 0 49 c0 27 -3
63 -6 80 l-6 31 -88 0 -87 0 -7 -31 c-3 -17 -6 -53 -6 -80 l0 -49 -80 0 c-44
0 -80 4 -80 9 0 6 9 25 20 44 29 48 139 494 133 535 l-5 32 112 0 113 0 -7
-31z m359 14 c-22 -55 -26 -106 -23 -317 2 -176 6 -237 16 -249 8 -9 11 -21 7
-27 -6 -10 -165 -15 -165 -4 0 3 7 27 16 54 13 40 15 89 12 279 -2 167 -6 233
-15 243 -31 30 -15 38 73 38 78 0 85 -2 79 -17z m-8647 -1345 l2 -1288 -145 0
-145 0 0 1290 0 1291 143 -3 142 -3 3 -1287z m3892 1067 c140 -27 256 -49 258
-50 1 -1 -20 -114 -48 -251 -28 -137 -55 -274 -61 -304 -37 -201 -111 -582
-179 -920 -43 -217 -95 -480 -115 -585 -20 -104 -45 -234 -56 -289 -10 -54
-19 -99 -19 -100 0 -2 -553 106 -557 108 -1 1 23 118 53 261 30 143 104 503
164 800 60 297 147 728 194 959 47 230 86 421 86 423 0 3 6 3 13 0 6 -2 127
-26 267 -52z m637 4 c114 -22 225 -43 246 -46 20 -3 37 -9 37 -12 0 -13 -54
-295 -186 -961 -74 -377 -169 -860 -211 -1075 -42 -214 -80 -394 -84 -399 -6
-7 -535 88 -547 98 -4 4 117 613 164 826 13 58 61 299 108 535 47 237 97 486
112 555 14 69 32 157 40 195 8 39 26 122 39 185 14 63 25 123 25 134 0 14 5
17 24 12 13 -3 118 -24 233 -47z m-4159 -1181 l2 -1178 -140 0 -140 0 0 1173
c0 646 3 1177 7 1181 4 4 66 6 138 4 l130 -3 3 -1177z m1742 957 l0 -215 -810
0 -810 0 0 210 0 210 808 3 c444 1 808 3 810 5 1 1 2 -95 2 -213z m1070 -555
l0 -210 -1345 0 -1345 0 0 210 0 210 1345 0 1345 0 0 -210z m5690 -700 l0
-875 -135 -3 -135 -3 0 881 0 881 135 -3 135 -3 0 -875z m-1420 -105 l0 -776
-142 3 c-107 2 -143 6 -142 16 1 6 2 354 3 772 l1 760 140 0 140 0 0 -775z
m360 0 l0 -775 -140 0 -140 0 0 775 0 775 140 0 140 0 0 -775z m-1490 -10 l0
-765 -250 0 -250 0 0 765 0 765 250 0 250 0 0 -765z m2178 -39 l2 -726 -145 0
-146 0 1 724 c1 398 3 726 5 728 2 1 66 2 142 1 l138 -2 3 -725z m754 -11 l3
-715 -142 0 -143 0 0 715 0 715 140 0 140 0 2 -715z m-3557 -35 l0 -675 -247
-3 -248 -2 0 680 0 680 248 -2 247 -3 0 -675z m1347 15 c0 -366 1 -671 2 -677
1 -10 -70 -14 -316 -16 l-318 -2 0 680 0 680 315 0 315 0 2 -665z m-4214 333
l2 -208 -1170 0 -1170 0 0 210 0 210 1168 -2 1167 -3 3 -207z m2232 -428 l0
-600 -140 0 -140 0 0 600 0 600 140 0 140 0 0 -600z m4530 -5 l0 -595 -140 0
-140 0 0 595 0 595 140 0 140 0 0 -595z m-1435 -5 l0 -585 -135 0 -135 0 -3
588 -2 588 137 -3 138 -3 0 -585z m-5460 -85 l0 -210 -1104 0 -1103 0 1 205
c0 113 0 208 1 213 0 4 496 6 1103 5 l1102 -3 0 -210z m233 -387 l-3 -113
-1217 -3 -1218 -2 0 115 0 115 1220 0 1221 0 -3 -112z m11132 -1553 l0 -925
-160 0 -160 0 0 925 0 925 160 0 160 0 0 -925z m-6125 810 c210 -53 403 -215
490 -411 43 -95 56 -175 62 -379 6 -197 -5 -349 -32 -438 -51 -171 -200 -350
-355 -425 -131 -65 -230 -86 -370 -79 -136 6 -236 34 -338 95 -200 120 -322
312 -352 556 -17 134 -8 457 16 546 76 293 298 495 602 550 62 12 203 4 277
-15z m-7735 -1435 l0 -1440 -120 0 -120 0 0 1433 c0 789 3 1437 7 1440 3 4 57
7 120 7 l113 0 0 -1440z m11384 1410 c142 -36 199 -71 322 -195 61 -62 125
-120 142 -129 36 -18 50 -52 31 -71 -8 -7 -94 -38 -191 -71 -174 -57 -177 -58
-197 -39 -15 12 -21 30 -21 58 0 89 -59 143 -183 166 -148 27 -312 -65 -368
-206 -21 -54 -23 -76 -27 -309 -4 -265 3 -336 39 -411 28 -58 94 -124 154
-153 43 -22 64 -25 150 -25 88 0 107 3 149 25 57 29 86 75 86 136 0 29 6 46
21 60 20 18 23 17 197 -40 97 -32 181 -62 186 -67 25 -23 15 -49 -32 -81 -26
-17 -92 -78 -147 -134 -82 -83 -114 -108 -175 -138 -189 -91 -384 -91 -570 1
-165 81 -279 221 -330 406 -20 73 -21 96 -18 405 3 305 5 331 26 392 31 94 88
184 163 261 147 150 383 213 593 159z m-10240 -21 c12 -18 12 -25 -1 -57 -11
-26 -13 -53 -9 -91 4 -30 62 -278 131 -552 124 -500 152 -587 204 -633 12 -11
21 -30 21 -43 l0 -23 -174 0 c-200 0 -207 3 -187 69 16 55 14 94 -11 199 l-22
92 -197 0 c-169 0 -198 -2 -203 -16 -32 -83 -46 -246 -25 -286 9 -17 7 -24 -9
-41 -19 -19 -32 -20 -183 -18 -90 1 -167 5 -171 7 -16 10 -7 38 26 74 43 48
69 117 117 315 48 194 50 201 138 545 72 278 84 366 60 412 -8 15 -8 27 2 44
l12 24 233 0 c225 0 233 -1 248 -21z m1645 6 c245 -58 397 -286 347 -523 -17
-81 -52 -153 -102 -207 l-33 -36 59 -59 c109 -109 162 -265 140 -411 -23 -144
-130 -293 -258 -358 -115 -58 -141 -61 -529 -61 -348 0 -352 0 -364 21 -9 17
-6 30 14 68 44 80 47 129 47 746 0 617 -3 666 -47 746 -20 38 -23 51 -14 68
12 21 16 21 344 21 261 0 346 -4 396 -15z m979 -10 c10 -21 8 -30 -12 -59 -48
-71 -51 -117 -51 -751 0 -633 3 -673 51 -747 20 -32 22 -41 12 -63 l-11 -25
-199 0 -198 0 -12 26 c-9 20 -9 29 0 42 57 81 62 141 62 768 0 593 -4 659 -46
733 -17 32 -23 53 -19 73 l7 28 202 0 203 0 11 -25z m887 10 c99 -26 162 -61
224 -122 108 -108 156 -254 128 -389 -19 -90 -48 -151 -100 -210 l-41 -46 41
-37 c125 -111 187 -280 161 -435 -33 -195 -205 -370 -397 -406 -29 -6 -208
-10 -397 -10 -340 0 -343 0 -355 21 -9 18 -6 31 15 73 14 28 30 75 36 105 14
76 13 1195 -1 1278 -6 35 -22 79 -35 99 -27 39 -28 47 -14 75 10 18 25 19 343
19 268 0 344 -3 392 -15z m982 -11 c10 -22 8 -30 -12 -60 -46 -68 -48 -95 -52
-706 l-4 -578 168 0 c182 0 261 13 315 51 24 18 34 20 54 10 13 -6 24 -14 24
-18 0 -5 -15 -64 -34 -133 -19 -69 -39 -144 -46 -168 l-11 -42 -407 2 -407 3
-9 26 c-7 21 -5 32 11 53 46 58 48 92 48 766 l0 635 -34 69 c-28 57 -32 72
-22 92 l11 24 197 0 198 0 12 -26z m1060 1 c9 -21 8 -29 -8 -49 -10 -13 -26
-50 -36 -82 -15 -52 -17 -127 -21 -638 -3 -621 0 -683 44 -774 22 -44 24 -58
15 -78 l-11 -24 -198 0 -199 0 -12 26 c-10 22 -9 30 4 44 8 9 26 44 38 76 22
59 22 63 22 674 0 659 -2 694 -50 765 -21 30 -23 39 -13 60 l11 25 201 0 201
0 12 -25z m2757 -12 c-3 -21 -13 -92 -22 -157 -17 -116 -18 -120 -45 -129 -21
-7 -32 -5 -45 6 -27 24 -120 45 -212 49 l-85 3 -3 -570 c-3 -613 1 -677 44
-741 20 -29 23 -42 16 -63 l-9 -26 -199 -3 -199 -2 -12 25 c-10 22 -8 31 12
60 48 72 50 98 50 730 l0 590 -95 -3 c-96 -2 -187 -22 -224 -48 -25 -17 -37
-18 -60 -1 -16 12 -16 20 3 155 12 79 21 147 21 152 0 6 203 10 535 10 l535 0
-6 -37z m960 -105 c9 -79 19 -157 22 -175 5 -25 2 -34 -15 -43 -18 -9 -31 -7
-74 15 -70 34 -145 45 -304 45 l-133 0 0 -180 0 -180 203 0 c260 0 252 6 212
-142 -15 -57 -30 -114 -34 -128 l-8 -25 -186 -3 -187 -2 0 -205 0 -205 154 0
c174 0 239 9 313 46 45 21 55 23 73 12 11 -7 19 -17 17 -23 -2 -5 -24 -83 -48
-172 l-44 -163 -406 0 -406 0 -11 24 c-8 18 -7 28 3 43 8 10 24 45 35 79 20
60 21 77 18 711 l-3 650 -31 59 c-24 48 -28 65 -21 82 l10 22 417 0 417 0 17
-142z m2478 118 c16 -23 17 -27 2 -63 -28 -66 -11 -155 142 -763 149 -590 176
-675 235 -736 21 -21 30 -40 27 -55 l-3 -24 -201 -3 -201 -2 -16 24 c-15 23
-15 28 -1 63 19 44 15 141 -9 233 -8 30 -17 67 -21 83 l-6 27 -234 0 -233 0
-24 -87 c-28 -101 -33 -249 -11 -276 12 -14 11 -20 -5 -41 l-18 -25 -201 -1
-202 0 -6 26 c-5 20 -1 30 19 46 14 11 43 57 65 102 33 68 66 184 186 662 80
318 148 609 151 645 4 50 2 74 -12 102 -16 34 -16 37 2 61 l18 25 270 0 270 0
17 -23z m-13622 -1491 l0 -1335 -155 0 -155 0 0 1335 0 1335 155 0 155 0 0
-1335z m418 -2 l-3 -1338 -155 0 -155 0 -3 1338 -2 1337 160 0 160 0 -2 -1337z
m14716 1125 c37 -238 109 -685 190 -1178 36 -217 79 -485 96 -595 17 -110 44
-285 61 -389 33 -200 33 -205 -16 -206 -11 0 -101 -14 -200 -30 -99 -16 -190
-30 -201 -30 -19 0 -22 9 -32 83 -6 45 -20 143 -32 217 -11 74 -25 164 -30
200 -5 36 -35 220 -65 410 -104 649 -124 781 -165 1055 -34 231 -77 508 -85
546 l-6 26 213 35 c117 20 220 36 229 37 12 1 20 -34 43 -181z m535 105 c25
-159 74 -461 151 -933 44 -267 89 -541 99 -610 39 -248 94 -588 121 -750 15
-91 27 -166 26 -167 -3 -3 -247 -44 -374 -63 -45 -7 -85 -10 -89 -7 -3 4 -16
75 -29 159 -90 592 -178 1154 -234 1493 -23 143 -116 758 -126 831 l-6 52 68
11 c38 6 132 22 209 35 77 13 147 24 156 25 13 1 19 -16 28 -76z m-13219
-1550 l0 -163 -800 0 -800 0 0 159 c0 97 4 161 10 163 5 2 365 3 800 3 l790 0
0 -162z m8726 -253 c211 -53 381 -191 474 -385 67 -141 75 -187 75 -470 0
-289 -7 -329 -83 -485 -83 -170 -251 -312 -434 -364 -271 -77 -552 0 -740 203
-109 118 -168 243 -188 393 -12 96 -12 390 0 498 18 158 92 304 216 427 94 93
200 153 326 184 102 25 253 25 354 -1z m-8066 -185 l0 -165 -1130 0 -1130 0 0
165 0 165 1130 0 1130 0 0 -165z m737 153 c4 -7 8 -44 9 -83 0 -84 14 -121
125 -357 119 -253 137 -291 149 -324 l12 -29 38 75 c92 183 241 520 249 567 6
28 8 67 4 86 -3 19 0 44 6 56 11 20 17 21 220 21 l208 0 11 -26 c10 -21 9 -31
-12 -67 -43 -74 -46 -127 -46 -746 0 -628 5 -692 51 -755 17 -23 19 -32 10
-52 l-11 -24 -199 0 c-194 0 -201 1 -212 21 -9 17 -6 30 14 68 43 79 47 128
46 519 l-1 367 -38 -80 c-21 -44 -88 -186 -148 -315 l-109 -235 -75 -3 -75 -3
-76 163 c-41 90 -102 219 -134 288 -33 69 -66 141 -75 160 -16 33 -17 16 -17
-320 0 -381 8 -479 49 -544 14 -24 19 -43 14 -60 l-6 -26 -202 0 -203 0 -12
26 c-9 22 -8 29 9 51 52 67 54 85 58 698 4 627 0 694 -47 789 -24 49 -27 63
-18 83 l10 23 208 0 c155 0 210 -3 216 -12z m2026 5 c3 -5 8 -44 11 -88 4 -44
11 -109 16 -145 20 -134 8 -150 -83 -106 -65 32 -187 48 -327 44 l-105 -3 -3
-177 -2 -178 209 0 c266 0 253 10 203 -172 l-35 -128 -189 0 -188 0 0 -205 0
-205 163 0 c172 0 264 14 325 50 27 16 36 18 52 7 25 -15 25 -15 -4 -117 -13
-47 -32 -120 -42 -162 l-18 -78 -407 0 c-400 0 -409 0 -419 20 -9 17 -5 33 22
88 l33 67 0 655 c0 612 -1 658 -18 700 -10 25 -26 53 -34 62 -13 15 -14 22 -3
48 l12 30 414 0 c227 0 415 -3 417 -7z m631 -20 c12 -25 12 -30 -11 -64 -47
-71 -52 -146 -53 -742 0 -633 6 -698 67 -768 11 -13 11 -21 2 -43 l-12 -26
-203 0 -202 0 -6 26 c-5 17 0 36 14 60 44 70 49 152 49 734 0 300 -4 579 -9
620 -6 43 -21 98 -36 128 -22 44 -24 58 -15 78 l11 24 194 0 195 0 15 -27z
m1110 2 c15 -23 15 -29 1 -73 -21 -61 -16 -109 40 -337 233 -950 275 -1094
341 -1156 14 -13 24 -34 24 -51 l0 -28 -203 0 -203 0 -15 28 c-13 23 -14 31
-3 52 20 38 16 154 -10 250 l-22 85 -236 3 -235 2 -21 -82 c-31 -126 -37 -195
-19 -247 14 -39 14 -46 0 -68 l-16 -23 -201 2 c-201 3 -201 3 -204 26 -2 15 8
36 29 59 64 74 87 147 240 759 154 614 164 672 135 739 -11 26 -11 33 6 58
l19 27 269 0 268 0 16 -25z m1765 7 c5 -10 7 -43 4 -73 -8 -77 12 -121 212
-470 179 -314 174 -304 178 -298 1 2 0 157 -3 344 l-5 341 -31 61 c-27 56 -29
65 -17 87 l14 26 195 0 194 0 11 -24 c9 -20 7 -34 -15 -78 -15 -30 -31 -81
-36 -114 -6 -33 -10 -310 -10 -639 0 -620 2 -651 51 -733 12 -21 17 -42 13
-58 l-6 -24 -204 0 -204 0 -6 26 c-4 17 1 40 19 72 22 42 24 54 17 109 -7 56
-28 97 -236 462 -126 220 -233 400 -237 401 -14 0 -2 -847 12 -902 7 -26 23
-63 36 -83 21 -30 23 -39 13 -60 l-11 -25 -203 0 -202 0 -6 26 c-5 17 0 36 13
58 49 78 51 110 51 736 0 322 -4 610 -9 640 -9 54 -30 109 -53 142 -9 13 -9
22 0 42 l12 26 219 0 c203 0 221 -1 230 -18z m2909 -7 c10 -21 8 -30 -13 -60
-46 -68 -48 -97 -52 -695 -5 -667 1 -750 64 -821 11 -13 11 -21 2 -43 l-12
-26 -203 0 -204 0 -5 23 c-4 14 3 42 19 73 43 87 48 164 43 784 -4 607 -6 636
-51 703 -21 31 -22 36 -9 60 l14 27 198 0 198 0 11 -25z m1199 3 c-3 -13 -13
-83 -23 -156 -15 -123 -19 -135 -41 -145 -19 -8 -31 -6 -61 10 -50 28 -127 43
-217 43 l-75 0 0 -556 c0 -357 4 -581 11 -627 11 -69 38 -139 59 -152 6 -4 4
-17 -5 -36 l-16 -29 -198 0 -198 0 -11 25 c-10 21 -8 30 13 61 49 72 49 74 52
712 l4 602 -83 0 c-93 -1 -186 -18 -237 -44 -27 -15 -39 -16 -59 -7 -22 10
-24 16 -18 49 3 20 13 90 22 155 l17 117 535 0 534 0 -5 -22z m945 -23 c8 -44
38 -283 38 -301 0 -20 -50 -26 -74 -10 -52 33 -131 48 -293 53 l-163 6 0 -182
0 -181 203 0 c265 0 253 10 206 -170 l-34 -130 -187 0 -188 0 0 -206 0 -206
188 4 c191 4 261 17 303 54 13 12 21 13 43 2 17 -7 26 -18 23 -27 -3 -9 -19
-70 -36 -136 -17 -66 -36 -137 -42 -157 l-10 -38 -408 0 -409 0 -6 24 c-4 16
3 42 18 73 43 85 46 135 46 737 0 612 -4 662 -51 746 -19 33 -21 44 -11 65
l12 25 412 -2 413 -3 7 -40z m-12887 -603 c175 -65 318 -227 354 -400 14 -69
14 -445 0 -514 -32 -155 -146 -300 -289 -370 -106 -52 -152 -58 -410 -58 -219
0 -230 1 -240 20 -8 16 -6 26 9 47 11 16 25 48 30 73 6 27 11 244 11 545 0
513 -4 567 -41 617 -16 24 -17 31 -7 48 13 21 19 21 268 18 234 -3 260 -5 315
-26z m1210 8 c15 -17 16 -23 5 -50 -28 -67 -7 -170 167 -835 77 -295 92 -338
138 -394 15 -17 25 -39 23 -48 -3 -16 -20 -18 -169 -21 l-165 -2 -13 24 c-10
17 -10 29 -2 44 16 30 12 127 -8 207 l-17 70 -194 0 -194 0 -18 -70 c-22 -83
-26 -181 -9 -213 11 -20 10 -27 -5 -43 -16 -17 -32 -19 -181 -19 -158 0 -163
1 -163 21 0 11 11 35 24 52 54 72 64 102 151 442 157 613 181 736 154 787 -8
15 -8 27 2 44 l12 24 222 0 c208 0 223 -1 240 -20z m5883 -197 l3 -103 -301 0
-300 0 0 105 0 105 298 -2 297 -3 3 -102z m7332 -1895 l0 -1608 -202 -1 c-112
-1 -214 -2 -228 -3 l-25 -1 -3 1600 c-1 880 0 1605 2 1610 2 6 89 10 230 10
l226 1 0 -1608z m-570 -3 l0 -1605 -295 0 -295 0 0 1605 0 1605 295 0 295 0 0
-1605z m-15351 1088 c17 -148 41 -342 51 -433 29 -239 258 -2092 269 -2174 6
-38 8 -73 6 -76 -2 -4 -53 -12 -112 -19 -59 -7 -120 -14 -135 -17 -22 -4 -27
-1 -32 23 -8 38 -113 898 -156 1278 -6 55 -52 426 -101 825 -49 399 -92 749
-95 778 -6 50 -5 52 17 53 13 0 69 7 124 14 55 7 107 13 116 14 13 1 21 -42
48 -266z m435 225 c5 -34 114 -875 186 -1443 74 -584 110 -869 125 -980 8 -60
26 -197 40 -304 14 -106 25 -195 23 -196 -2 -1 -74 -11 -160 -22 l-157 -19 -6
45 c-3 26 -41 339 -85 696 -44 358 -92 740 -106 850 -104 814 -170 1361 -165
1367 6 7 208 35 267 37 28 1 32 -3 38 -31z m3515 -500 c6 -29 38 -208 71 -398
32 -190 84 -484 115 -655 30 -170 87 -490 125 -710 38 -220 76 -436 85 -479 8
-44 13 -82 10 -84 -5 -6 -507 -93 -511 -89 -1 1 -29 169 -64 372 -53 318 -129
761 -225 1310 -57 321 -117 696 -114 699 3 3 448 80 486 85 6 0 16 -22 22 -51z
m10159 -1185 l2 -1233 -145 0 -145 0 0 1228 c0 676 3 1232 7 1236 4 3 68 5
142 4 l136 -3 3 -1232z m-2163 1167 c77 -11 159 -23 183 -27 23 -3 42 -11 42
-18 0 -6 -7 -56 -15 -111 -44 -286 -82 -546 -145 -984 -38 -267 -83 -577 -100
-690 -57 -377 -92 -605 -94 -607 -3 -4 -409 56 -413 61 -3 3 28 216 82 566 28
179 74 495 94 640 22 158 75 516 116 785 14 94 33 220 41 280 20 139 19 137
46 130 13 -2 86 -14 163 -25z m538 -21 c78 -12 143 -22 144 -23 1 -1 -4 -42
-12 -91 -8 -50 -30 -196 -50 -325 -40 -275 -51 -344 -145 -955 -39 -253 -80
-521 -91 -595 -47 -317 -66 -441 -70 -445 -3 -2 -43 2 -89 10 -47 8 -117 19
-157 25 -47 8 -70 16 -68 23 4 10 110 694 145 927 5 30 36 228 69 440 34 212
71 441 81 510 11 69 24 152 30 185 18 110 50 321 50 328 0 10 4 9 163 -14z
m396 -1 c53 -7 95 -17 98 -24 4 -12 -4 -74 -82 -584 -50 -324 -85 -563 -145
-978 -22 -150 -46 -317 -54 -370 -8 -53 -27 -178 -42 -277 -15 -99 -28 -181
-28 -182 -3 -4 -269 37 -274 41 -2 2 1 40 8 83 19 131 89 594 130 863 22 140
49 314 59 385 11 72 27 177 36 235 9 58 24 166 35 240 35 251 81 555 86 574 5
15 13 17 43 13 20 -4 78 -12 130 -19z m-7809 -1208 l0 -1170 -290 0 -290 0 0
1170 0 1170 290 0 290 0 0 -1170z m578 -2 l-3 -1173 -230 0 -230 0 -3 1173 -2
1172 235 0 235 0 -2 -1172z m552 -3 l0 -1175 -230 0 -230 0 0 1175 0 1175 230
0 230 0 0 -1175z m4918 1166 l82 -1 0 -1170 0 -1170 -117 0 -118 0 3 1167 c1
643 2 1171 2 1174 0 4 15 5 33 4 17 -2 69 -3 115 -4z m-3090 -1178 l-3 -1158
-140 0 -140 0 -3 1145 c-1 630 0 1151 3 1158 3 9 42 12 145 12 l140 0 -2
-1157z m-4629 975 c12 -68 46 -269 77 -448 30 -179 88 -514 129 -745 132 -752
146 -838 138 -845 -4 -3 -109 -23 -233 -44 -124 -21 -236 -40 -250 -42 l-25
-5 -34 203 c-18 112 -37 226 -41 253 -5 28 -34 196 -65 375 -31 179 -81 474
-111 655 -30 182 -67 406 -84 500 -16 93 -26 173 -22 176 4 3 70 16 147 29
111 17 310 52 346 59 3 0 16 -54 28 -121z m11081 -1014 l0 -1114 -140 0 -140
0 0 1108 c0 610 2 1111 5 1114 3 3 66 6 140 6 l135 0 0 -1114z m-752 -11 l2
-1103 -140 0 -140 0 0 1104 0 1104 138 -1 137 -2 3 -1102z m-7130 -30 l2
-1083 -142 0 -143 0 2 1078 c2 592 3 1081 3 1085 0 4 62 6 138 5 l137 -3 3
-1082z m362 3 l0 -1075 -132 -3 c-73 -2 -136 -2 -140 0 -5 2 -8 487 -8 1078
l0 1074 140 0 140 0 0 -1074z m-4910 -41 l0 -1045 -140 0 -140 0 0 1045 0
1045 140 0 140 0 0 -1045z m5600 0 l0 -1045 -140 0 -140 0 0 1045 0 1045 140
0 140 0 0 -1045z m-6420 0 l0 -1035 -140 0 -140 0 0 1035 0 1035 140 0 140 0
0 -1035z m450 0 l0 -1035 -135 0 -135 0 0 1035 0 1035 135 0 135 0 0 -1035z
m6718 -7 l-3 -1033 -132 0 -133 0 -2 1028 c-2 566 -1 1031 1 1033 2 2 64 4
138 4 l133 0 -2 -1032z m1514 862 c2 -72 2 -135 0 -140 -2 -6 -252 -10 -698
-10 l-694 0 0 140 0 140 694 0 695 0 3 -130z m3478 -880 l0 -1010 -140 0 -140
0 0 1010 0 1010 140 0 140 0 0 -1010z m1307 -3 l3 -1005 -80 -4 -80 -3 0 1007
0 1007 68 3 c37 2 72 3 77 3 7 -1 11 -346 12 -1008z m-11967 -7 l0 -1000 -135
0 -135 0 0 1000 0 1000 135 0 135 0 0 -1000z m4580 -59 c0 -517 -3 -941 -7
-943 -5 -2 -68 -2 -140 0 l-133 3 0 940 0 939 140 0 140 0 0 -939z m-4910 -36
l0 -905 -140 0 -140 0 0 905 0 905 140 0 140 0 0 -905z m7662 640 l3 -135
-772 0 -773 0 0 135 0 135 769 0 770 0 3 -135z m148 -355 l0 -140 -845 0 -845
0 0 140 0 140 845 0 845 0 0 -140z m0 -365 l0 -135 -845 0 -845 0 0 135 0 135
845 0 845 0 0 -135z m440 -355 l0 -140 -1065 0 -1065 0 0 140 0 140 1065 0
1065 0 0 -140z m228 -337 l-3 -138 -1175 3 -1175 3 -3 134 -3 135 1181 0 1181
0 -3 -137z m-7918 -2018 l0 -1715 -130 0 -130 0 0 1715 0 1715 130 0 130 0 0
-1715z m-1310 -110 l0 -1605 -130 0 -130 0 0 1605 0 1605 130 0 130 0 0 -1605z
m12660 -6 l0 -1599 -140 0 -140 0 0 1603 0 1602 140 -3 140 -3 0 -1600z m363
3 l2 -1602 -142 0 -143 0 0 1598 c0 879 3 1602 7 1606 4 3 67 5 140 4 l133 -3
3 -1603z m-12693 -2 l0 -1600 -125 0 -125 0 0 1600 0 1600 125 0 125 0 0
-1600z m640 -50 l0 -1550 -130 0 -130 0 0 1550 0 1550 130 0 130 0 0 -1550z
m13010 -10 l0 -1540 -190 0 -190 0 0 1538 c0 846 2 1541 4 1543 2 2 88 3 190
1 l186 -3 0 -1539z m-12320 -5 l0 -1535 -130 0 -130 0 0 1535 0 1535 130 0
130 0 0 -1535z m12610 -62 l0 -1473 -110 0 -110 0 0 1468 c0 808 2 1471 4
1473 3 2 52 4 110 4 l106 1 0 -1473z m-8700 -53 l0 -1420 -230 0 -230 0 0
1420 0 1420 230 0 230 0 0 -1420z m6368 -3 l2 -1417 -140 0 -140 0 0 1413 c0
778 2 1416 4 1418 3 2 64 4 138 3 l133 -1 3 -1416z m-9968 -12 l0 -1405 -130
0 -130 0 0 1405 0 1405 130 0 130 0 0 -1405z m11550 0 l0 -1405 -190 0 -190 0
0 1405 0 1405 190 0 190 0 0 -1405z m-12860 -5 l0 -1400 -130 0 -130 0 0 1400
0 1400 130 0 130 0 0 -1400z m4298 -62 l2 -1338 -230 0 -230 0 0 1338 0 1338
228 -1 227 0 3 -1337z m5944 1 l3 -1339 -180 0 -180 0 2 1337 c2 736 3 1339 3
1341 0 1 79 2 175 1 l175 -1 2 -1339z m348 1 l0 -1340 -140 0 -140 0 0 1333
c0 734 3 1337 7 1340 3 4 66 7 140 7 l133 0 0 -1340z m338 -2 l2 -1338 -140 0
-140 0 0 1339 0 1339 138 -2 137 -1 3 -1337z m752 2 l0 -1340 -180 0 -180 0 0
1333 c0 734 3 1337 7 1340 3 4 84 7 180 7 l173 0 0 -1340z m-6110 -5 l0 -1335
-290 0 -290 0 0 1335 0 1335 290 0 290 0 0 -1335z m812 1309 c23 -21 29 -52
11 -58 -25 -10 -43 -7 -43 8 0 20 -27 27 -40 11 -17 -21 -3 -51 36 -82 66 -50
82 -116 39 -158 -36 -37 -86 -34 -119 6 -26 31 -34 59 -17 59 5 0 16 3 25 6
11 4 19 -2 26 -20 11 -29 44 -35 54 -10 8 20 -7 47 -41 74 -79 62 -85 155 -13
183 21 8 62 -2 82 -19z m491 -6 c10 -12 16 -28 15 -37 -5 -25 -37 -25 -57 0
-10 12 -23 19 -29 15 -24 -15 -12 -52 29 -91 58 -56 73 -95 55 -139 -12 -28
-22 -36 -52 -42 -47 -9 -85 10 -98 49 -11 30 -10 32 19 41 15 4 23 0 30 -17
12 -27 48 -29 53 -3 3 12 -14 37 -46 70 -55 57 -67 82 -57 127 13 57 98 74
138 27z m-8738 -23 c110 -19 212 -37 226 -40 l26 -6 -17 -92 c-10 -51 -27
-148 -39 -217 -11 -69 -32 -190 -46 -270 -13 -80 -40 -239 -60 -355 -19 -115
-55 -325 -80 -465 -25 -140 -79 -457 -121 -705 -42 -247 -77 -451 -78 -452 -1
-1 -118 19 -259 45 -251 45 -258 47 -252 69 7 30 141 765 159 878 8 50 24 142
35 205 11 63 31 178 45 255 14 77 41 228 61 335 40 214 67 370 115 650 17 102
33 191 36 198 2 7 13 10 26 7 13 -3 113 -21 223 -40z m638 -4 c120 -22 220
-41 222 -43 4 -3 -21 -152 -94 -558 -22 -124 -60 -346 -85 -495 -60 -360 -107
-632 -156 -905 -22 -124 -54 -308 -71 -410 -17 -102 -32 -186 -33 -187 -1 -1
-101 16 -221 37 -121 22 -235 43 -252 46 -18 3 -33 11 -33 18 0 17 157 909
239 1361 33 182 76 425 96 540 42 245 103 590 110 622 4 18 10 21 33 17 15 -3
125 -22 245 -43z m3276 -473 c52 -288 105 -584 118 -658 43 -247 94 -534 103
-585 4 -27 38 -216 75 -418 37 -203 65 -371 62 -373 -5 -6 -509 -96 -513 -92
-3 4 -140 784 -228 1308 -36 212 -99 578 -141 814 -41 236 -72 432 -69 435 6
6 443 88 479 90 19 1 26 -33 114 -521z m521 513 c0 -6 29 -171 64 -368 36
-197 94 -524 130 -728 36 -203 88 -496 116 -650 87 -485 141 -797 137 -801 -2
-2 -39 -10 -83 -18 -273 -50 -427 -77 -429 -74 -2 2 -12 62 -24 133 -19 120
-74 436 -135 785 -15 80 -64 368 -111 640 -112 657 -143 837 -159 923 -8 40
-12 74 -10 77 5 4 457 88 487 89 9 1 17 -3 17 -8z m3415 -16 c29 -28 32 -70 9
-103 -14 -21 -14 -25 -1 -40 25 -28 29 -59 13 -96 -18 -42 -47 -56 -117 -56
l-49 0 0 160 0 160 60 0 c51 0 65 -4 85 -25z m225 0 c0 -23 -4 -25 -45 -25
l-45 0 0 -40 c0 -39 1 -40 36 -40 31 0 35 -3 32 -22 -2 -18 -11 -24 -35 -26
-32 -3 -33 -5 -33 -48 l0 -44 45 0 c41 0 45 -2 45 -25 0 -24 -2 -25 -75 -25
l-75 0 0 160 0 160 75 0 c73 0 75 -1 75 -25z m380 0 c0 -20 -5 -25 -25 -25
l-25 0 0 -135 0 -135 -30 0 -30 0 0 135 0 135 -25 0 c-20 0 -25 5 -25 25 0 25
1 25 80 25 79 0 80 0 80 -25z m490 0 c0 -23 -4 -25 -45 -25 l-45 0 0 -40 c0
-39 1 -40 35 -40 31 0 35 -3 35 -26 0 -24 -3 -26 -35 -22 l-35 4 0 -48 0 -48
50 0 c47 0 50 -2 50 -25 0 -26 0 -26 -77 -23 l-78 3 -3 158 -3 157 76 0 c73 0
75 -1 75 -25z m102 -107 l3 -133 43 -3 c38 -3 43 -6 40 -25 -3 -20 -9 -22 -70
-22 -38 0 -68 3 -68 8 0 4 0 75 0 157 l0 150 25 0 24 0 3 -132z m170 0 l3
-133 43 -3 c37 -3 42 -6 42 -28 0 -23 -2 -24 -70 -24 l-70 0 0 160 0 160 25 0
24 0 3 -132z m268 107 c0 -23 -3 -25 -50 -25 l-50 0 0 -40 0 -40 41 0 c36 0
40 -2 37 -22 -2 -19 -10 -24 -41 -26 l-38 -3 3 -42 3 -42 48 -3 c42 -3 47 -5
47 -28 0 -23 -2 -24 -75 -24 l-75 0 0 160 0 160 75 0 c73 0 75 -1 75 -25z
m185 0 c30 -29 34 -92 9 -134 -17 -28 -14 -48 24 -148 3 -9 -6 -13 -26 -13
-28 0 -31 3 -47 65 -11 39 -23 65 -31 65 -10 0 -14 -17 -14 -65 l0 -65 -30 0
-30 0 0 160 0 160 60 0 c51 0 65 -4 85 -25z m880 -72 c10 -54 53 -294 96 -533
71 -395 101 -563 189 -1070 16 -91 57 -317 90 -503 34 -186 59 -344 57 -351
-3 -7 -58 -22 -134 -34 -70 -13 -175 -31 -233 -42 -159 -30 -142 -40 -167 108
-12 70 -40 233 -62 362 -22 129 -72 420 -111 645 -38 226 -94 550 -124 720
-98 562 -120 695 -115 700 4 3 396 78 491 94 3 1 14 -43 23 -96z m604 45 c17
-86 147 -806 186 -1033 34 -203 64 -368 200 -1120 35 -192 60 -353 56 -356 -7
-7 -467 -89 -499 -89 -16 0 -21 9 -26 53 -4 28 -43 259 -87 512 -44 253 -104
602 -134 775 -88 513 -152 885 -181 1052 -15 87 -25 160 -23 163 4 4 425 84
491 94 4 1 11 -23 17 -51z m-2589 -148 c0 -18 -7 -20 -55 -20 -48 0 -55 2 -55
20 0 18 7 20 55 20 48 0 55 -2 55 -20z m-2986 -146 c15 -6 16 -113 16 -1160
l0 -1154 -295 0 -295 0 0 1155 0 1155 278 3 c152 1 278 3 279 5 1 1 9 -1 17
-4z m2273 -198 c21 -25 23 -37 23 -132 0 -98 -2 -107 -25 -129 -20 -21 -34
-25 -85 -25 l-60 0 0 153 c0 85 3 157 8 161 4 4 31 6 61 4 44 -4 59 -10 78
-32z m214 15 c23 -18 24 -25 24 -146 0 -115 -2 -128 -20 -141 -33 -24 -65 -28
-101 -11 -41 20 -47 48 -42 182 3 87 5 99 27 116 30 24 82 24 112 0z m226 7
c6 -7 20 -43 32 -80 13 -38 26 -68 29 -68 4 0 7 35 7 77 0 77 0 78 25 78 l25
0 2 -157 3 -158 -29 0 c-28 0 -31 4 -56 83 -15 45 -30 85 -34 89 -3 4 -4 -33
-3 -82 l4 -90 -29 0 -28 0 2 153 c1 83 2 155 2 160 1 12 38 8 48 -5z m313 -15
c0 -26 -3 -28 -42 -28 l-43 0 0 -40 c0 -39 1 -40 33 -37 28 3 32 1 32 -22 0
-21 -5 -25 -32 -28 -31 -3 -33 -6 -36 -45 l-3 -43 50 0 c48 0 51 -2 51 -25 0
-25 -1 -25 -77 -25 l-78 0 1 153 c1 83 2 155 3 160 0 4 33 7 71 7 70 0 70 0
70 -27z m91 -68 c18 -98 21 -97 41 15 11 64 16 75 35 78 19 3 22 -4 33 -70 20
-130 25 -133 41 -28 12 78 17 95 33 98 10 2 22 0 26 -5 4 -4 -3 -66 -16 -138
-33 -182 -31 -175 -58 -175 -22 0 -25 6 -36 73 -18 116 -25 123 -39 37 -17
-105 -19 -110 -45 -110 -22 0 -25 8 -53 153 -16 83 -28 156 -25 160 2 5 14 7
25 5 19 -3 24 -14 38 -93z m-941 -472 c19 -70 26 -71 44 -9 15 52 19 56 47 56
26 0 30 -3 24 -17 -51 -129 -65 -180 -65 -239 l0 -64 -30 0 -30 0 0 73 c0 67
-16 134 -55 230 -6 14 -2 17 23 17 27 0 31 -4 42 -47z m290 27 c18 -18 20 -33
20 -140 0 -140 -10 -160 -80 -160 -70 0 -80 20 -80 160 0 140 10 160 80 160
27 0 47 -7 60 -20z m214 -1 c22 -17 26 -28 26 -71 0 -33 -6 -58 -16 -69 -15
-17 -15 -23 5 -80 26 -79 27 -79 -7 -79 -25 0 -29 5 -46 65 -11 39 -24 65 -32
65 -11 0 -14 -16 -14 -65 0 -65 0 -65 -28 -65 l-28 0 -1 153 c0 83 1 155 4
160 2 4 28 7 57 7 39 0 61 -6 80 -21z m137 -31 l0 -53 27 53 c22 44 30 52 54
52 l28 0 -30 -60 -30 -59 30 -90 c17 -49 30 -94 30 -100 0 -6 -11 -11 -25 -11
-22 0 -27 8 -46 70 -11 38 -25 67 -30 64 -5 -3 -9 -34 -9 -70 l0 -64 -30 0
-30 0 0 160 0 160 30 0 c29 0 30 -1 31 -52z m371 27 c5 -22 2 -25 -23 -25
l-29 0 0 -135 0 -135 -25 0 -25 0 0 135 0 135 -30 0 c-25 0 -30 4 -30 25 0 25
1 25 79 25 76 0 79 -1 83 -25z m98 -135 l0 -160 -30 0 -30 0 0 160 0 160 30 0
30 0 0 -160z m141 88 c16 -95 24 -111 33 -62 26 137 24 134 65 134 l37 0 1
-160 1 -160 -30 0 -30 0 7 100 c5 62 4 100 -2 100 -5 0 -17 -45 -27 -100 -12
-71 -22 -100 -32 -100 -7 0 -16 10 -18 23 -3 12 -12 58 -21 101 -8 44 -17 82
-20 84 -3 3 -5 -43 -5 -101 l0 -107 -25 0 -25 0 0 160 0 160 39 0 39 0 13 -72z
m329 47 c0 -23 -4 -25 -45 -25 l-45 0 0 -40 c0 -39 1 -40 35 -40 31 0 35 -3
35 -25 0 -22 -4 -25 -35 -25 -35 0 -35 0 -35 -45 l0 -45 48 0 c44 0 48 -2 50
-25 2 -25 1 -25 -78 -25 l-80 0 0 160 0 160 75 0 c73 0 75 -1 75 -25z m180 -2
c25 -32 22 -47 -13 -51 -20 -2 -27 1 -27 13 0 11 -7 15 -22 13 -39 -5 -33 -36
15 -81 51 -48 67 -75 67 -113 0 -79 -119 -104 -155 -33 -21 40 -19 49 14 49
21 0 30 -6 34 -21 4 -15 12 -20 29 -17 39 5 34 36 -15 81 -52 49 -67 75 -67
116 0 69 96 100 140 44z m280 -738 l0 -145 -1080 0 -1080 0 0 145 0 145 1080
0 1080 0 0 -145z m190 -335 l0 -140 -1175 0 -1175 0 0 133 c0 74 3 137 7 140
3 4 532 7 1175 7 l1168 0 0 -140z m288 -377 l3 -143 -1321 0 -1320 0 0 145 0
145 1318 -2 1317 -3 3 -142z m-2978 -1993 l0 -1650 -140 0 -140 0 0 1650 0
1650 140 0 140 0 0 -1650z m-1425 -45 l0 -1600 -142 -3 -143 -3 0 1606 0 1606
143 -3 142 -3 0 -1600z m355 -2 l0 -1603 -135 0 -135 0 0 1603 0 1602 135 0
135 0 0 -1602z m-1560 -13 l0 -1590 -250 0 -250 0 0 1590 0 1590 250 0 250 0
0 -1590z m2255 -40 l0 -1545 -140 0 -140 0 -3 1548 -2 1548 142 -3 143 -3 0
-1545z m6695 -5 l0 -1545 -190 0 -190 0 0 1545 0 1545 190 0 190 0 0 -1545z
m-5945 -10 l0 -1530 -137 -3 -138 -3 0 1536 0 1536 138 -3 137 -3 0 -1530z
m-3635 -30 l0 -1495 -245 0 -245 0 0 1495 0 1495 245 0 245 0 0 -1495z m1350
0 l0 -1495 -320 0 -320 0 0 1495 0 1495 320 0 320 0 0 -1495z m8530 -30 l0
-1476 -117 3 -118 3 -3 1473 -2 1472 120 0 120 0 0 -1475z m-12744 1325 c10
-55 20 -97 23 -94 3 3 13 47 21 97 15 90 16 92 44 95 25 3 28 1 23 -20 -3 -13
-18 -85 -33 -160 l-27 -138 -28 0 c-16 0 -29 1 -29 3 0 1 -13 65 -30 142 -37
171 -37 175 -6 175 23 0 25 -6 42 -100z m294 75 c0 -23 -4 -25 -45 -25 l-45 0
0 -40 c0 -39 1 -40 35 -40 31 0 35 -3 35 -25 0 -22 -4 -25 -35 -25 -35 0 -35
0 -35 -45 l0 -45 45 0 c41 0 45 -2 45 -25 0 -24 -2 -25 -75 -25 l-75 0 0 160
0 160 75 0 c73 0 75 -1 75 -25z m127 -62 l32 -88 0 88 c1 86 1 87 26 87 l25 0
0 -160 0 -160 -24 0 c-21 0 -27 9 -50 78 -38 113 -47 120 -46 37 2 -117 3
-115 -25 -115 l-25 0 0 153 c0 85 3 157 7 160 3 4 16 7 27 7 18 0 27 -15 53
-87z m258 81 c19 -8 45 -55 45 -84 0 -16 -6 -20 -29 -20 -25 0 -30 4 -33 28
-2 19 -9 28 -26 30 -23 3 -23 3 -20 -110 3 -105 4 -113 23 -113 15 0 21 8 25
35 4 29 9 35 30 35 23 0 25 -4 24 -38 -2 -53 -31 -81 -81 -79 -27 1 -44 9 -60
27 -21 24 -23 36 -23 136 0 103 1 111 25 134 24 25 65 32 100 19z m243 -21 c3
-21 -1 -23 -42 -23 l-46 0 0 -40 c0 -39 1 -40 35 -40 31 0 35 -3 35 -25 0 -22
-4 -25 -35 -25 -35 0 -35 0 -35 -45 l0 -45 45 0 c41 0 45 -2 45 -25 0 -24 -2
-25 -75 -25 l-75 0 0 160 0 161 73 -3 c66 -3 72 -5 75 -25z m192 2 c18 -16 20
-30 20 -135 0 -110 -1 -118 -24 -139 -20 -19 -33 -22 -82 -19 l-59 3 -3 145
c-1 79 0 150 3 158 8 21 118 12 145 -13z m225 -1 c20 -26 20 -241 1 -267 -22
-29 -70 -41 -103 -25 -45 22 -54 51 -51 171 3 102 5 110 28 129 31 25 103 20
125 -8z m216 -3 c24 -29 25 -93 3 -130 -17 -28 -14 -48 24 -148 3 -9 -6 -13
-26 -13 -28 0 -31 4 -48 65 -10 36 -24 65 -31 65 -9 0 -13 -19 -13 -65 l0 -65
-30 0 -30 0 0 161 0 161 66 -4 c55 -3 70 -8 85 -27z m312 1 c20 -21 22 -32 22
-133 0 -109 0 -111 -28 -135 -22 -19 -39 -24 -83 -24 l-54 0 0 161 0 161 60
-4 c45 -3 66 -10 83 -26z m207 18 c29 -15 37 -64 31 -178 -7 -121 -16 -135
-91 -130 -40 3 -47 7 -62 38 -13 25 -18 59 -18 117 0 87 11 130 37 151 20 15
77 16 103 2z m11440 -1443 c0 -789 -2 -1436 -4 -1438 -2 -2 -54 -3 -115 -1
l-111 3 0 1435 0 1434 115 0 115 0 0 -1433z m-2210 -27 l0 -1420 -325 0 -325
0 0 1420 0 1420 325 0 325 0 0 -1420z m-4460 -10 l0 -1410 -145 0 -145 0 0
1410 0 1410 145 0 145 0 0 -1410z m-1430 -10 l0 -1401 -140 2 -140 1 0 1399 0
1399 140 0 140 0 0 -1400z m7770 1 c0 -765 -3 -1391 -7 -1393 -5 -2 -86 -2
-180 0 l-173 3 0 1390 0 1389 180 0 180 0 0 -1389z m-14435 1229 c126 -28 231
-53 234 -55 2 -3 -42 -247 -98 -542 -56 -296 -130 -693 -166 -883 -35 -190
-96 -513 -135 -718 -38 -205 -70 -380 -70 -390 0 -38 -12 -41 -90 -27 -41 8
-154 28 -250 45 -96 17 -188 33 -203 36 -27 6 -28 8 -22 47 14 82 465 2418
490 2533 4 20 9 21 42 13 21 -4 141 -31 268 -59z m8775 32 c0 -10 43 -234 95
-498 52 -263 127 -645 165 -849 38 -203 87 -458 109 -565 90 -450 124 -630
120 -635 -6 -5 -550 -107 -554 -103 -1 2 -17 82 -34 178 -82 450 -113 619
-146 790 -38 193 -129 682 -165 880 -43 240 -65 355 -121 642 -7 37 -11 69 -8
71 2 2 108 23 234 47 127 24 241 47 255 51 40 12 50 10 50 -9z m668 -29 c11
-48 70 -356 138 -713 19 -102 66 -342 104 -535 72 -361 100 -509 145 -750 14
-77 42 -219 61 -315 19 -96 34 -182 34 -192 0 -10 -11 -19 -27 -22 -118 -24
-516 -96 -518 -94 -5 4 -176 900 -230 1198 -25 140 -57 314 -71 385 -127 659
-184 968 -179 974 4 3 464 100 527 110 3 1 11 -20 16 -46z m1262 -1293 l0
-1340 -320 0 -320 0 0 1340 0 1340 320 0 320 0 0 -1340z m560 0 l0 -1340 -217
2 -218 3 -3 1338 -2 1337 220 0 220 0 0 -1340z m520 0 l0 -1340 -215 0 -215 0
0 1340 0 1340 215 0 215 0 0 -1340z m3410 0 l0 -1335 -155 -3 -155 -3 0 1341
0 1341 155 -3 155 -3 0 -1335z m-14210 0 l0 -1330 -320 0 -320 0 0 1330 0
1330 320 0 320 0 0 -1330z m14590 0 l0 -1330 -155 0 -155 0 0 1330 0 1330 155
0 155 0 0 -1330z m-13917 1018 c9 -11 17 -33 17 -49 0 -24 -4 -29 -25 -29 -18
0 -25 5 -25 19 0 24 -27 48 -41 34 -6 -6 -9 -54 -7 -114 3 -96 4 -104 23 -104
15 0 21 8 23 33 3 27 0 32 -17 32 -24 0 -26 9 -8 34 9 12 23 17 47 14 l35 -3
3 -82 c3 -86 -5 -101 -37 -70 -11 10 -14 10 -18 0 -3 -7 -20 -13 -38 -13 -24
0 -39 7 -54 26 -18 23 -21 41 -21 133 0 82 4 112 16 129 31 45 92 49 127 10z
m224 0 c15 -17 18 -38 18 -140 0 -114 -1 -121 -24 -139 -33 -27 -86 -25 -116
6 -23 22 -25 31 -25 129 0 127 8 152 52 164 43 11 73 5 95 -20z m219 1 c13
-14 19 -42 22 -104 8 -148 -13 -195 -87 -195 -31 0 -44 6 -60 26 -18 23 -21
41 -21 138 0 121 10 152 53 158 39 6 75 -3 93 -23z m1224 16 c29 -15 46 -47
35 -65 -10 -17 -39 -11 -53 10 -15 25 -28 25 -42 0 -9 -17 -3 -28 44 -79 62
-67 71 -87 56 -126 -14 -38 -38 -54 -78 -55 -62 0 -113 82 -58 92 20 4 26 0
31 -19 4 -18 11 -23 28 -21 40 6 32 37 -22 92 -78 79 -81 154 -8 175 17 5 33
10 35 10 2 1 16 -6 32 -14z m-1012 -16 c24 -25 32 -62 32 -146 0 -115 -31
-153 -126 -153 l-44 0 0 160 0 160 60 0 c47 0 63 -4 78 -21z m212 11 c11 -6
25 -28 31 -49 10 -34 9 -45 -10 -83 l-21 -45 20 -58 c26 -74 25 -77 -7 -73
-24 3 -29 11 -45 66 -26 87 -48 85 -48 -4 l0 -65 -27 3 -28 3 -3 158 -3 157
61 0 c34 0 70 -5 80 -10z m230 -15 c0 -23 -4 -25 -45 -25 l-45 0 0 -40 c0 -39
1 -40 35 -40 31 0 35 -3 35 -25 0 -22 -4 -25 -35 -25 -35 0 -35 0 -35 -45 l0
-45 51 0 c47 0 50 -2 47 -22 -3 -22 -8 -23 -78 -23 l-75 0 -3 158 -3 157 76 0
c73 0 75 -1 75 -25z m182 -125 c34 -181 34 -172 1 -168 -23 2 -29 8 -31 36 -3
28 -7 32 -32 32 -24 0 -29 -5 -34 -35 -6 -29 -11 -35 -31 -35 -14 0 -25 3 -25
8 0 4 12 76 27 160 l27 153 35 -3 36 -3 27 -145z m199 131 c22 -18 24 -28 27
-121 6 -150 -14 -180 -118 -180 l-50 0 0 160 0 160 59 0 c43 0 65 -5 82 -19z
m10039 -1336 l0 -1015 -247 0 -248 0 0 1015 0 1015 248 0 247 0 0 -1015z
m-10815 820 c16 -15 25 -36 25 -55 0 -27 -3 -30 -30 -30 -25 0 -30 4 -30 25 0
29 -28 45 -41 24 -5 -8 -9 -54 -9 -104 0 -49 4 -96 9 -104 15 -23 41 -5 41 29
0 27 3 30 30 30 26 0 30 -3 30 -29 0 -43 -9 -60 -42 -77 -36 -18 -78 -11 -104
18 -16 17 -19 37 -19 133 0 106 2 115 24 139 33 35 83 35 116 1z m133 -42 c3
-63 3 -63 33 -63 l31 0 -4 63 c-3 60 -2 62 22 62 l25 0 3 -157 3 -158 -29 0
-29 0 1 68 c1 66 1 67 -26 70 l-28 3 0 -70 0 -71 -30 0 -30 0 0 153 c0 85 3
157 7 161 4 4 16 6 28 4 17 -3 20 -11 23 -65z m314 37 c15 -18 18 -42 18 -136
0 -100 -2 -116 -20 -134 -27 -27 -65 -35 -101 -20 -41 18 -49 43 -49 166 0 99
1 106 26 131 22 22 32 25 67 20 26 -4 49 -14 59 -27z m128 -130 l0 -160 -25 0
-25 0 0 154 c0 114 3 156 13 159 36 15 37 10 37 -153z m184 148 c17 -7 30 -24
36 -47 14 -50 14 -51 -19 -51 -25 0 -30 4 -33 28 -2 19 -9 27 -23 27 -19 0
-20 -7 -20 -110 0 -103 1 -110 20 -110 15 0 21 8 23 33 3 28 7 32 33 32 32 0
37 -15 19 -67 -16 -46 -65 -64 -113 -42 -38 17 -47 50 -47 165 0 98 2 107 25
129 26 27 60 32 99 13z m244 -12 c5 -25 -14 -35 -55 -29 -33 6 -33 6 -33 -36
0 -40 1 -41 35 -41 31 0 35 -3 35 -25 0 -22 -4 -25 -35 -25 -35 0 -35 0 -35
-45 l0 -45 44 0 c48 0 60 -8 50 -34 -5 -13 -22 -16 -80 -16 l-74 0 0 158 0
157 72 0 c63 0 73 -3 76 -19z m-1608 -941 l0 -905 -320 0 -320 0 0 905 0 905
320 0 320 0 0 -905z m450 441 c0 -6 49 -270 55 -293 5 -20 1 -23 -24 -23 -26
0 -30 4 -33 33 -3 28 -7 32 -35 35 -32 3 -33 2 -33 -32 0 -31 -3 -36 -23 -36
-13 0 -26 2 -29 5 -5 5 16 131 43 263 10 51 11 52 45 52 19 0 34 -2 34 -4z
m109 -59 c6 -35 11 -73 11 -85 0 -11 4 -23 8 -26 4 -3 13 31 20 75 13 91 16
99 42 99 22 0 25 -8 41 -114 13 -87 21 -82 33 19 10 86 14 95 42 95 29 0 29 9
-4 -170 -26 -140 -28 -145 -52 -145 -23 0 -26 6 -41 87 -8 49 -18 90 -21 93
-3 3 -12 -36 -19 -87 -13 -89 -15 -93 -39 -93 -24 0 -26 5 -52 140 -34 175
-34 175 -4 175 22 0 25 -6 35 -63z m373 -92 c15 -82 28 -154 28 -158 0 -5 -12
-7 -27 -5 -23 2 -29 8 -31 36 -3 28 -7 32 -32 32 -24 0 -29 -5 -34 -35 -6 -29
-11 -35 -31 -35 -14 0 -25 5 -25 10 0 15 49 283 55 298 3 8 17 12 37 10 l32
-3 28 -150z m206 132 c23 -24 24 -125 1 -140 -15 -9 -15 -15 2 -71 24 -79 24
-86 -6 -86 -21 0 -27 8 -42 62 -26 86 -43 87 -43 4 l0 -66 -30 0 -30 0 0 161
0 161 65 -4 c44 -3 71 -10 83 -21z m213 -6 c28 -28 29 -33 29 -120 0 -142 -18
-170 -112 -171 l-58 0 0 160 0 160 56 0 c48 0 59 -4 85 -29z m208 3 c12 -15
21 -33 21 -40 0 -20 -47 -18 -58 2 -11 20 -46 15 -50 -8 -2 -9 20 -40 52 -72
48 -47 56 -61 56 -93 0 -50 -32 -83 -79 -83 -20 0 -43 6 -52 13 -22 17 -41 55
-34 67 9 15 55 12 55 -4 0 -7 7 -19 15 -26 12 -10 18 -10 30 0 25 20 17 41
-28 84 -52 49 -67 74 -67 115 0 69 96 100 139 45z m51 -744 l0 -160 -735 0
-735 0 0 160 0 160 735 0 735 0 0 -160z m90 -415 l0 -165 -782 2 -783 3 -3
163 -2 162 785 0 785 0 0 -165z m1600 -2085 l0 -1720 -140 0 -140 0 0 1720 0
1720 140 0 140 0 0 -1720z m4535 0 l0 -1715 -137 -3 -138 -3 0 1721 0 1721
138 -3 137 -3 0 -1715z m-5965 -115 l0 -1605 -140 0 -140 0 0 1605 0 1605 140
0 140 0 0 -1605z m360 5 l0 -1600 -140 0 -140 0 0 1600 0 1600 140 0 140 0 0
-1600z m6670 0 l0 -1600 -137 0 -138 0 2 1593 c2 875 3 1595 3 1600 0 4 61 7
135 7 l135 0 0 -1600z m370 -5 l0 -1605 -145 0 -145 0 0 1605 0 1605 145 0
145 0 0 -1605z m-6350 -55 l0 -1550 -140 0 -140 0 0 1550 0 1550 140 0 140 0
0 -1550z m5295 0 l0 -1545 -140 0 -140 0 -3 1548 -2 1548 142 -3 143 -3 0
-1545z m-9175 -5 l0 -1545 -187 2 -188 3 -3 1530 c-1 842 0 1536 3 1543 3 9
51 12 190 12 l185 0 0 -1545z m11180 0 l0 -1545 -187 2 -188 3 -3 1530 c-1
842 0 1536 3 1543 3 9 51 12 190 12 l185 0 0 -1545z m3650 0 l0 -1545 -185 0
-185 0 0 1545 0 1545 185 0 185 0 0 -1545z m-10200 -5 l0 -1530 -135 0 -135 0
0 1530 0 1530 135 0 135 0 0 -1530z m3790 0 l0 -1530 -140 0 -140 0 0 1530 0
1530 140 0 140 0 0 -1530z m4803 1391 c4 -4 3 -32 -2 -62 -5 -29 -17 -117 -25
-194 -44 -384 -111 -952 -156 -1315 -58 -477 -110 -907 -141 -1182 -21 -186
-24 -198 -43 -198 -21 0 -301 35 -367 45 l-36 6 8 57 c5 31 31 255 59 497 28
242 87 726 130 1075 43 349 88 719 100 822 32 294 57 485 63 495 6 10 396 -34
410 -46z m-11082 -268 c31 -245 116 -955 179 -1493 8 -66 63 -516 120 -975 10
-82 17 -152 15 -154 -4 -4 -370 -50 -402 -51 -20 0 -23 5 -23 34 0 19 -25 231
-55 473 -30 241 -75 618 -100 838 -50 435 -60 520 -135 1125 -27 222 -50 418
-50 435 0 26 4 31 28 33 57 4 367 44 371 48 2 2 6 2 9 0 2 -3 22 -143 43 -313z
m11774 287 c61 -7 113 -15 117 -19 4 -3 1 -53 -7 -111 -8 -58 -28 -224 -45
-370 -17 -146 -60 -508 -96 -805 -78 -645 -79 -656 -99 -815 -9 -69 -20 -161
-25 -205 -5 -44 -23 -189 -40 -322 -16 -134 -30 -258 -30 -277 0 -19 -4 -37
-10 -41 -11 -7 -262 24 -271 33 -4 4 11 146 32 317 22 171 66 535 99 810 33
275 96 784 140 1132 44 348 80 646 80 664 0 27 3 31 23 26 12 -3 72 -11 132
-17z m338 -1 c70 -8 111 -17 114 -25 3 -7 -2 -75 -11 -151 -8 -76 -37 -340
-65 -588 -28 -247 -62 -562 -76 -700 -47 -457 -166 -1519 -170 -1524 -6 -5
-277 27 -283 34 -2 2 3 68 12 147 9 79 23 204 31 278 30 261 125 1076 135
1150 20 156 51 419 100 858 66 594 58 544 84 539 12 -3 70 -11 129 -18z
m-13439 -1 c2 -7 18 -137 35 -288 17 -151 60 -525 96 -830 35 -305 74 -636 85
-735 12 -99 45 -385 75 -635 29 -250 51 -457 50 -458 -4 -4 -289 -41 -292 -38
-3 3 -22 160 -53 456 -17 157 -44 407 -60 555 -16 149 -52 477 -80 730 -148
1338 -138 1225 -114 1226 11 0 60 7 109 14 120 17 145 17 149 3z m341 -20 c3
-18 34 -271 70 -563 36 -291 115 -936 176 -1432 62 -497 110 -905 107 -908 -9
-9 -256 -38 -273 -32 -8 4 -15 18 -15 33 0 15 -27 246 -60 513 -34 267 -81
657 -106 866 -24 209 -76 636 -115 949 -38 313 -68 571 -66 573 6 5 193 30
239 32 34 1 38 -1 43 -31z m12415 11 c58 -7 108 -15 111 -18 4 -3 -2 -71 -12
-151 -30 -232 -140 -1108 -250 -1990 -55 -448 -102 -816 -103 -817 -4 -4 -309
36 -314 41 -2 3 26 236 62 518 37 282 105 812 151 1178 111 874 154 1210 161
1239 4 21 9 23 47 17 23 -3 89 -11 147 -17z m-14012 -1461 l-3 -1473 -112 -3
-113 -3 -1 1458 c0 802 -2 1466 -4 1476 -3 15 8 17 116 17 l119 0 -2 -1472z
m1976 1450 c3 -13 17 -117 31 -233 15 -115 49 -379 76 -585 27 -206 85 -663
129 -1015 44 -352 94 -739 110 -859 17 -120 29 -221 27 -223 -6 -6 -301 -42
-306 -37 -2 2 -21 140 -42 306 -20 167 -80 647 -133 1068 -52 421 -116 936
-141 1145 -26 209 -49 390 -52 403 -5 20 -2 22 38 23 24 0 82 7 129 14 124 19
129 18 134 -7z m9946 -1453 l0 -1475 -115 0 -115 0 0 1475 0 1475 115 0 115 0
0 -1475z m-4734 1425 c56 -24 84 -69 84 -133 0 -58 -12 -82 -51 -106 l-30 -18
30 -13 c108 -44 74 -236 -49 -270 -19 -5 -142 -10 -272 -10 l-238 0 0 283 c0
156 2 286 4 288 2 2 111 3 242 1 208 -2 243 -5 280 -22z m-7966 -1455 l0
-1435 -115 0 -115 0 0 1435 0 1435 115 0 115 0 0 -1435z m13478 3 l-3 -1433
-117 -3 -118 -3 0 1436 0 1435 120 0 120 0 -2 -1432z m-11840 -33 l-3 -1406
-185 0 -185 0 -3 1393 c-1 766 0 1399 3 1406 3 9 51 12 190 12 l185 0 -2
-1405z m4552 5 c0 -770 1 -1403 3 -1407 1 -5 -62 -9 -140 -11 l-143 -3 0 1411
0 1410 140 0 140 0 0 -1400z m5790 -5 l0 -1405 -185 0 -185 0 0 1405 0 1405
185 0 185 0 0 -1405z m-7222 -11 l-3 -1396 -130 1 c-71 1 -131 3 -132 5 -2 2
-5 2700 -3 2779 0 4 61 7 135 7 l135 0 -2 -1396z m5972 1 l0 -1395 -140 0
-140 0 0 1395 0 1395 140 0 140 0 0 -1395z m-10270 -5 l0 -1390 -175 0 -175 0
0 1390 0 1390 175 0 175 0 0 -1390z m12680 0 l0 -1390 -164 0 c-90 0 -171 -3
-180 -6 -15 -6 -16 121 -16 1390 l0 1396 180 0 180 0 0 -1390z m-6579 871 c32
-32 37 -66 15 -96 -12 -17 -12 -22 0 -39 21 -30 17 -80 -6 -101 -13 -11 -41
-20 -75 -23 l-55 -4 0 139 c0 77 3 143 7 146 3 4 24 7 45 7 30 0 46 -7 69 -29z
m189 -1 c0 -27 -3 -30 -30 -30 -27 0 -30 -3 -30 -30 0 -25 4 -30 25 -30 20 0
25 -5 25 -25 0 -20 -5 -25 -25 -25 -22 0 -25 -4 -25 -35 0 -32 2 -35 30 -35
25 0 30 -4 30 -25 0 -24 -3 -25 -60 -25 l-59 0 3 143 c2 78 4 143 5 145 0 1
26 2 56 2 54 0 55 0 55 -30z m178 -5 c12 -14 22 -35 22 -45 0 -24 -21 -70 -32
-70 -13 0 -9 -21 16 -83 l24 -58 -30 3 c-28 3 -34 9 -54 63 l-23 60 0 -62 -1
-63 -30 0 -30 0 0 146 0 147 58 -6 c45 -5 62 -12 80 -32z m202 5 c0 -23 -4
-30 -20 -30 -19 0 -20 -7 -20 -115 l0 -115 -30 0 -30 0 0 115 c0 108 -1 115
-20 115 -16 0 -20 7 -20 30 l0 30 70 0 70 0 0 -30z m174 1 c26 -26 27 -83 1
-111 -18 -20 -18 -22 -1 -68 32 -82 32 -82 -1 -82 -26 0 -31 6 -47 50 -26 71
-39 74 -34 6 3 -55 3 -56 -24 -56 l-28 0 0 146 0 147 57 -6 c38 -4 63 -13 77
-26z m213 -101 c40 -160 40 -160 4 -160 -23 0 -30 5 -33 23 -2 17 -10 22 -33
22 -23 0 -31 -5 -33 -22 -3 -18 -10 -23 -31 -23 l-28 0 29 128 c39 172 35 164
66 160 26 -3 29 -9 59 -128z m150 60 c35 -95 43 -96 43 -7 0 75 0 77 25 77
l25 0 0 -146 0 -145 -26 3 c-22 3 -31 13 -53 70 -14 36 -30 70 -34 74 -4 4 -7
-27 -7 -69 l0 -77 -27 0 -28 0 2 138 c1 75 2 141 2 145 1 5 13 7 27 5 22 -3
30 -13 51 -68z m250 53 c48 -22 66 -68 61 -151 -4 -58 -8 -68 -36 -93 -26 -24
-41 -29 -82 -29 l-50 0 0 145 0 145 36 0 c20 0 52 -8 71 -17z m274 -12 c32
-32 37 -66 15 -96 -12 -17 -12 -22 0 -39 8 -11 14 -35 14 -52 0 -46 -38 -74
-101 -74 l-49 0 0 138 c0 76 3 142 7 145 3 4 24 7 45 7 30 0 46 -7 69 -29z
m203 5 c21 -13 26 -24 26 -58 0 -25 -7 -49 -17 -60 -18 -20 -16 -31 24 -135 3
-9 -5 -13 -24 -13 -26 0 -31 6 -53 63 l-25 62 -3 -62 c-3 -63 -3 -63 -33 -63
l-30 0 2 138 c2 75 5 141 7 146 7 13 98 1 126 -18z m223 -106 c40 -159 40
-160 4 -160 -23 0 -30 5 -33 23 -2 17 -10 22 -33 22 -23 0 -31 -5 -33 -22 -3
-18 -10 -23 -33 -23 -24 0 -29 4 -25 18 3 9 17 71 32 137 14 66 28 124 31 128
3 5 17 7 31 5 25 -3 29 -10 59 -128z m167 124 c9 -3 16 -17 16 -30 0 -21 -3
-24 -26 -18 -17 4 -29 2 -35 -7 -14 -22 -12 -25 36 -72 47 -47 55 -74 34 -121
-24 -53 -119 -55 -119 -3 0 18 6 22 32 22 49 0 48 28 -1 74 -34 31 -41 44 -41
75 0 60 52 100 104 80z m134 -141 l3 -143 -31 0 -30 0 0 146 0 145 28 -3 27
-3 3 -142z m100 25 l3 -118 29 0 c25 0 30 -4 30 -25 0 -24 -3 -25 -60 -25
l-60 0 0 138 c0 76 3 142 7 146 4 4 16 6 28 4 19 -3 20 -11 23 -120z m-388
-613 l0 -145 -1160 0 -1160 0 0 145 0 145 1160 0 1160 0 0 -145z m570 -370 l0
-135 -1445 0 -1445 0 0 135 0 135 1445 0 1445 0 0 -135z m-180 -365 l0 -140
-1355 0 -1355 0 0 143 0 142 1355 -3 1355 -2 0 -140z m-390 -350 l0 -140
-1160 0 -1160 0 0 140 0 140 1160 0 1160 0 0 -140z m525 -335 l0 -140 -1422
-3 -1423 -2 0 142 0 143 1423 0 1422 0 0 -140z"/>
<path d="M13930 24198 c0 -14 -3 -40 -6 -57 -6 -27 -4 -31 15 -31 21 0 22 3
15 48 -7 53 -24 81 -24 40z"/>
<path d="M14530 24150 c0 -109 0 -110 24 -110 31 0 36 15 36 110 0 95 -5 110
-36 110 -24 0 -24 -1 -24 -110z"/>
<path d="M13835 23698 c-3 -8 -4 -59 -3 -114 3 -91 5 -99 23 -99 19 0 20 7 20
110 0 97 -2 110 -18 113 -9 2 -19 -3 -22 -10z"/>
<path d="M14530 23595 c0 -104 2 -115 18 -115 34 0 42 21 42 117 0 81 -2 94
-19 103 -38 20 -41 13 -41 -105z"/>
<path d="M13760 23104 c0 -44 1 -45 28 -42 23 3 28 8 30 37 4 35 -9 51 -40 51
-15 0 -18 -9 -18 -46z"/>
<path d="M14150 23088 c0 -14 -3 -40 -6 -57 -6 -27 -4 -31 15 -31 19 0 20 4
15 48 -7 52 -24 81 -24 40z"/>
<path d="M14340 23106 c0 -39 3 -46 20 -46 43 0 45 82 2 88 -20 3 -22 -1 -22
-42z"/>
<path d="M14542 22588 c-13 -13 -17 -173 -6 -202 3 -9 14 -16 24 -16 25 0 30
19 30 119 0 79 -9 111 -30 111 -3 0 -11 -5 -18 -12z"/>
<path d="M13977 22593 c-4 -3 -7 -55 -7 -115 0 -97 2 -108 18 -108 34 0 42 21
42 117 0 81 -2 94 -19 103 -23 12 -26 12 -34 3z"/>
<path d="M14317 22593 c-4 -3 -7 -53 -7 -110 0 -83 3 -105 15 -109 34 -13 45
15 45 112 0 82 -2 95 -19 104 -23 12 -26 12 -34 3z"/>
<path d="M13497 22033 c-4 -3 -7 -52 -7 -109 0 -84 3 -103 16 -108 9 -3 20 -4
25 0 5 3 9 54 9 115 0 99 -2 109 -18 109 -10 0 -22 -3 -25 -7z"/>
<path d="M14510 21932 c0 -60 3 -111 6 -114 3 -3 14 -4 25 -1 18 5 19 13 17
112 -3 101 -4 106 -25 109 -23 3 -23 2 -23 -106z"/>
<path d="M14729 22028 c-3 -49 4 -204 10 -211 4 -4 15 -5 25 -1 14 6 16 20 14
113 -3 101 -4 106 -25 109 -14 2 -23 -2 -24 -10z"/>
<path d="M7596 20866 c-14 -58 -26 -110 -26 -116 0 -6 24 -10 55 -10 30 0 55
4 55 9 0 14 -49 213 -53 218 -3 2 -16 -44 -31 -101z"/>
<path d="M9706 20960 c-3 -8 -15 -53 -26 -100 -12 -47 -23 -93 -26 -102 -5
-16 2 -18 55 -18 34 0 61 1 61 3 -9 53 -60 228 -64 217z"/>
<path d="M9220 17690 c0 -13 7 -20 20 -20 18 0 19 2 8 20 -7 11 -16 20 -20 20
-5 0 -8 -9 -8 -20z"/>
<path d="M9162 17655 c-16 -19 -3 -19 22 0 14 11 16 15 5 15 -8 -1 -20 -7 -27
-15z"/>
<path d="M9006 17594 c-18 -26 -18 -26 3 -15 11 7 21 18 21 26 0 20 -2 19 -24
-11z"/>
<path d="M9180 17534 c-157 -42 -284 -182 -311 -342 -15 -95 -11 -393 7 -472
30 -132 113 -236 234 -294 62 -29 71 -31 185 -31 108 1 125 3 176 27 71 34
157 113 192 175 48 90 57 148 57 379 0 183 -3 221 -20 276 -66 214 -300 341
-520 282z m134 -261 c24 -85 76 -207 111 -264 22 -34 25 -46 16 -58 -30 -41
-99 -195 -121 -268 -14 -46 -27 -83 -30 -83 -3 0 -14 30 -25 68 -22 79 -68
188 -108 255 -26 44 -27 50 -14 65 28 30 96 185 119 269 13 46 25 83 28 83 3
0 14 -30 24 -67z"/>
<path d="M8705 17210 c3 -5 8 -10 11 -10 2 0 4 5 4 10 0 6 -5 10 -11 10 -5 0
-7 -4 -4 -10z"/>
<path d="M8750 16520 c0 -5 5 -10 10 -10 6 0 10 5 10 10 0 6 -4 10 -10 10 -5
0 -10 -4 -10 -10z"/>
<path d="M9060 16289 c0 -5 5 -7 10 -4 6 3 10 8 10 11 0 2 -4 4 -10 4 -5 0
-10 -5 -10 -11z"/>
<path d="M12960 17703 c1 -18 19 -35 29 -28 9 5 9 10 0 21 -12 15 -29 19 -29
7z"/>
<path d="M12770 17640 c0 -5 5 -10 10 -10 6 0 10 5 10 10 0 6 -4 10 -10 10 -5
0 -10 -4 -10 -10z"/>
<path d="M12440 17242 c0 -5 7 -16 16 -23 14 -12 16 -11 13 5 -4 20 -29 35
-29 18z"/>
<path d="M13295 16390 c3 -5 8 -10 11 -10 2 0 4 5 4 10 0 6 -5 10 -11 10 -5 0
-7 -4 -4 -10z"/>
<path d="M2554 17247 c-40 -155 -70 -285 -67 -289 4 -8 283 -12 283 -4 0 2
-22 93 -49 202 -27 110 -57 233 -67 274 -9 41 -20 80 -23 87 -3 6 -38 -115
-77 -270z"/>
<path d="M2835 17250 c-3 -5 -1 -10 4 -10 6 0 11 5 11 10 0 6 -2 10 -4 10 -3
0 -8 -4 -11 -10z"/>
<path d="M2415 17240 c-3 -5 -2 -10 4 -10 5 0 13 5 16 10 3 6 2 10 -4 10 -5 0
-13 -4 -16 -10z"/>
<path d="M2430 17209 c0 -5 5 -7 10 -4 6 3 10 8 10 11 0 2 -4 4 -10 4 -5 0
-10 -5 -10 -11z"/>
<path d="M2582 16848 c5 -15 28 -18 29 -3 0 6 -7 12 -17 13 -10 3 -15 -1 -12
-10z"/>
<path d="M2890 16812 c0 -5 7 -15 15 -22 8 -7 15 -8 15 -2 0 5 -7 15 -15 22
-8 7 -15 8 -15 2z"/>
<path d="M2950 16620 c0 -5 5 -10 10 -10 6 0 10 5 10 10 0 6 -4 10 -10 10 -5
0 -10 -4 -10 -10z"/>
<path d="M2200 16490 c0 -5 5 -10 10 -10 6 0 10 5 10 10 0 6 -4 10 -10 10 -5
0 -10 -4 -10 -10z"/>
<path d="M4030 17646 c0 -31 6 -34 13 -6 3 11 1 23 -4 26 -5 3 -9 -6 -9 -20z"/>
<path d="M4140 17325 l0 -174 163 6 c179 6 200 12 243 69 60 78 34 204 -51
251 -37 21 -53 23 -197 23 l-158 0 0 -175z"/>
<path d="M4680 17423 c1 -28 62 -55 75 -33 11 17 -2 25 -19 11 -12 -10 -17 -9
-28 8 -13 21 -28 28 -28 14z"/>
<path d="M4670 17166 c0 -9 5 -16 10 -16 6 0 10 4 10 9 0 6 -4 13 -10 16 -5 3
-10 -1 -10 -9z"/>
<path d="M4081 16981 c-10 -6 -10 -10 -1 -16 13 -8 24 -1 19 14 -3 6 -10 7
-18 2z"/>
<path d="M4140 16643 l0 -218 170 2 c180 3 205 8 258 57 31 28 60 85 68 133 9
57 -11 114 -57 166 -56 65 -102 77 -291 77 l-148 0 0 -217z"/>
<path d="M5300 16710 c0 -5 5 -10 10 -10 6 0 10 5 10 10 0 6 -4 10 -10 10 -5
0 -10 -4 -10 -10z"/>
<path d="M5260 16559 c0 -5 5 -7 10 -4 6 3 10 8 10 11 0 2 -4 4 -10 4 -5 0
-10 -5 -10 -11z"/>
<path d="M5902 17645 c0 -16 2 -22 5 -12 2 9 2 23 0 30 -3 6 -5 -1 -5 -18z"/>
<path d="M6010 17324 c0 -157 2 -175 16 -170 9 3 82 6 163 6 138 0 150 2 182
23 107 72 101 236 -10 294 -40 21 -57 23 -198 23 l-153 0 0 -176z"/>
<path d="M6550 17424 c1 -33 63 -57 74 -29 5 13 2 15 -15 10 -13 -4 -27 0 -40
11 -10 9 -19 13 -19 8z"/>
<path d="M6540 17164 c0 -8 5 -12 10 -9 6 4 8 11 5 16 -9 14 -15 11 -15 -7z"/>
<path d="M5951 16981 c-10 -6 -10 -10 -1 -16 13 -8 24 -1 19 14 -3 6 -10 7
-18 2z"/>
<path d="M6010 16642 l0 -219 173 4 c166 4 174 6 217 32 147 88 141 286 -10
371 -42 23 -56 25 -212 28 l-168 4 0 -220z"/>
<path d="M6620 16529 c0 -5 5 -7 10 -4 6 3 10 8 10 11 0 2 -4 4 -10 4 -5 0
-10 -5 -10 -11z"/>
<path d="M7140 16470 c0 -5 5 -10 10 -10 6 0 10 5 10 10 0 6 -4 10 -10 10 -5
0 -10 -4 -10 -10z"/>
<path d="M7505 16310 c-3 -5 -1 -10 4 -10 6 0 11 5 11 10 0 6 -2 10 -4 10 -3
0 -8 -4 -11 -10z"/>
<path d="M8222 16709 c2 -6 8 -10 13 -10 5 0 11 4 13 10 2 6 -4 11 -13 11 -9
0 -15 -5 -13 -11z"/>
<path d="M8180 16649 c0 -5 5 -7 10 -4 6 3 10 8 10 11 0 2 -4 4 -10 4 -5 0
-10 -5 -10 -11z"/>
<path d="M8180 16559 c0 -5 5 -7 10 -4 6 3 10 8 10 11 0 2 -4 4 -10 4 -5 0
-10 -5 -10 -11z"/>
<path d="M10597 17689 c7 -7 15 -10 18 -7 3 3 -2 9 -12 12 -14 6 -15 5 -6 -5z"/>
<path d="M10237 17663 c-4 -3 -7 -11 -7 -17 0 -6 5 -5 12 2 6 6 9 14 7 17 -3
3 -9 2 -12 -2z"/>
<path d="M10745 17650 c3 -5 8 -10 11 -10 2 0 4 5 4 10 0 6 -5 10 -11 10 -5 0
-7 -4 -4 -10z"/>
<path d="M12010 17646 c0 -14 5 -26 10 -26 6 0 10 9 10 19 0 11 -4 23 -10 26
-6 4 -10 -5 -10 -19z"/>
<path d="M11870 17630 c0 -5 5 -10 10 -10 6 0 10 5 10 10 0 6 -4 10 -10 10 -5
0 -10 -4 -10 -10z"/>
<path d="M11740 16975 c0 -8 5 -15 10 -15 6 0 10 7 10 15 0 8 -4 15 -10 15 -5
0 -10 -7 -10 -15z"/>
<path d="M11485 16930 c-3 -5 1 -10 9 -10 9 0 16 5 16 10 0 6 -4 10 -9 10 -6
0 -13 -4 -16 -10z"/>
<path d="M11480 16546 c0 -2 9 -6 20 -9 11 -3 20 -1 20 4 0 5 -9 9 -20 9 -11
0 -20 -2 -20 -4z"/>
<path d="M11507 16463 c-4 -6 0 -16 8 -23 21 -17 28 -8 11 15 -8 11 -15 14
-19 8z"/>
<path d="M11490 16311 c0 -5 7 -12 16 -15 24 -9 28 -7 14 9 -14 17 -30 20 -30
6z"/>
<path d="M14400 17640 c0 -5 5 -10 10 -10 6 0 10 5 10 10 0 6 -4 10 -10 10 -5
0 -10 -4 -10 -10z"/>
<path d="M14327 17463 c-3 -10 -40 -154 -82 -320 -41 -167 -78 -310 -81 -318
-5 -13 17 -15 165 -15 94 0 171 2 171 5 0 9 -162 660 -165 663 -2 2 -6 -5 -8
-15z"/>
<path d="M14580 17150 c0 -5 5 -10 10 -10 6 0 10 5 10 10 0 6 -4 10 -10 10 -5
0 -10 -4 -10 -10z"/>
<path d="M14085 17140 c-3 -5 -2 -10 4 -10 5 0 13 5 16 10 3 6 2 10 -4 10 -5
0 -13 -4 -16 -10z"/>
<path d="M14107 17123 c-12 -11 -8 -23 8 -23 8 0 15 7 15 15 0 16 -12 20 -23
8z"/>
<path d="M14280 16691 c0 -15 29 -33 41 -25 9 5 7 11 -6 21 -22 15 -35 17 -35
4z"/>
<path d="M14650 16625 c7 -8 16 -15 21 -15 5 0 6 7 3 15 -4 8 -13 15 -21 15
-13 0 -13 -3 -3 -15z"/>
<path d="M13921 16594 c0 -11 3 -14 6 -6 3 7 2 16 -1 19 -3 4 -6 -2 -5 -13z"/>
<path d="M14715 16419 c-4 -6 -5 -13 -2 -16 7 -7 27 6 27 18 0 12 -17 12 -25
-2z"/>
<path d="M13860 16360 c0 -5 5 -10 10 -10 6 0 10 5 10 10 0 6 -4 10 -10 10 -5
0 -10 -4 -10 -10z"/>
<path d="M14805 16330 c-3 -5 -1 -10 4 -10 6 0 11 5 11 10 0 6 -2 10 -4 10 -3
0 -8 -4 -11 -10z"/>
<path d="M13895 16280 c3 -5 10 -10 16 -10 5 0 9 5 9 10 0 6 -7 10 -16 10 -8
0 -12 -4 -9 -10z"/>
<path d="M13840 16260 c0 -5 5 -10 10 -10 6 0 10 5 10 10 0 6 -4 10 -10 10 -5
0 -10 -4 -10 -10z"/>
<path d="M11937 15593 c-13 -13 -7 -35 8 -29 8 3 15 0 15 -6 0 -6 3 -9 6 -5 3
3 0 15 -8 26 -8 12 -18 18 -21 14z"/>
<path d="M12150 15570 c0 -5 5 -10 11 -10 5 0 7 5 4 10 -3 6 -8 10 -11 10 -2
0 -4 -4 -4 -10z"/>
<path d="M12030 15550 c0 -5 5 -10 10 -10 6 0 10 5 10 10 0 6 -4 10 -10 10 -5
0 -10 -4 -10 -10z"/>
<path d="M11865 15540 c-3 -5 -2 -10 4 -10 5 0 13 5 16 10 3 6 2 10 -4 10 -5
0 -13 -4 -16 -10z"/>
<path d="M11717 15484 c-10 -13 -14 -24 -9 -24 13 0 35 27 30 39 -1 5 -11 -2
-21 -15z"/>
<path d="M11920 15429 c-131 -25 -254 -123 -314 -249 l-31 -65 -3 -225 c-3
-150 0 -243 8 -280 47 -217 267 -368 484 -332 180 29 322 168 355 346 13 73
14 379 2 458 -29 174 -176 319 -352 348 -73 11 -86 11 -149 -1z m127 -339 c19
-58 44 -120 54 -137 10 -18 28 -48 39 -66 l19 -33 -30 -44 c-34 -52 -84 -176
-109 -270 -10 -36 -20 -58 -23 -50 -3 8 -15 47 -28 85 -27 85 -81 205 -110
247 -18 24 -20 34 -11 47 32 44 93 175 116 251 36 115 38 120 43 95 3 -11 20
-67 40 -125z"/>
<path d="M11415 15100 c3 -5 8 -10 11 -10 2 0 4 5 4 10 0 6 -5 10 -11 10 -5 0
-7 -4 -4 -10z"/>
<path d="M11465 14600 c3 -5 8 -10 11 -10 2 0 4 5 4 10 0 6 -5 10 -11 10 -5 0
-7 -4 -4 -10z"/>
<path d="M11460 14410 c0 -5 5 -10 10 -10 6 0 10 5 10 10 0 6 -4 10 -10 10 -5
0 -10 -4 -10 -10z"/>
<path d="M11765 14180 c-3 -5 1 -10 10 -10 9 0 13 5 10 10 -3 6 -8 10 -10 10
-2 0 -7 -4 -10 -10z"/>
<path d="M4720 15380 c0 -5 5 -10 10 -10 6 0 10 5 10 10 0 6 -4 10 -10 10 -5
0 -10 -4 -10 -10z"/>
<path d="M4740 15310 c0 -5 5 -10 10 -10 6 0 10 5 10 10 0 6 -4 10 -10 10 -5
0 -10 -4 -10 -10z"/>
<path d="M4620 15256 c0 -2 7 -7 16 -10 8 -3 12 -2 9 4 -6 10 -25 14 -25 6z"/>
<path d="M4670 15250 c0 -5 5 -10 10 -10 6 0 10 5 10 10 0 6 -4 10 -10 10 -5
0 -10 -4 -10 -10z"/>
<path d="M4626 15104 c-10 -25 1 -29 14 -5 6 12 7 21 1 21 -5 0 -12 -7 -15
-16z"/>
<path d="M5685 14530 c-3 -5 -1 -10 4 -10 6 0 11 5 11 10 0 6 -2 10 -4 10 -3
0 -8 -4 -11 -10z"/>
<path d="M5665 14390 c-3 -5 3 -10 14 -10 12 0 21 5 21 10 0 6 -6 10 -14 10
-8 0 -18 -4 -21 -10z"/>
<path d="M5661 14286 c-9 -10 -9 -16 -1 -21 17 -10 37 12 24 25 -8 8 -15 6
-23 -4z"/>
<path d="M6750 15530 c0 -11 5 -20 10 -20 6 0 10 9 10 20 0 11 -4 20 -10 20
-5 0 -10 -9 -10 -20z"/>
<path d="M6615 15521 c-6 -11 9 -23 19 -14 9 9 7 23 -3 23 -6 0 -12 -4 -16 -9z"/>
<path d="M6491 14864 c0 -11 3 -14 6 -6 3 7 2 16 -1 19 -3 4 -6 -2 -5 -13z"/>
<path d="M6220 14811 c0 -5 9 -7 20 -4 11 3 20 7 20 9 0 2 -9 4 -20 4 -11 0
-20 -4 -20 -9z"/>
<path d="M6235 14470 c-3 -5 -2 -10 4 -10 5 0 13 5 16 10 3 6 2 10 -4 10 -5 0
-13 -4 -16 -10z"/>
<path d="M6235 14430 c-3 -5 1 -10 9 -10 9 0 16 5 16 10 0 6 -4 10 -9 10 -6 0
-13 -4 -16 -10z"/>
<path d="M6255 14350 c-4 -7 -2 -16 6 -21 18 -11 23 -4 11 17 -7 12 -11 13
-17 4z"/>
<path d="M6300 14210 c0 -5 5 -10 11 -10 5 0 7 5 4 10 -3 6 -8 10 -11 10 -2 0
-4 -4 -4 -10z"/>
<path d="M6242 14198 c3 -7 13 -15 23 -17 17 -3 17 -2 3 13 -20 19 -31 21 -26
4z"/>
<path d="M6335 14200 c-3 -5 -1 -10 4 -10 6 0 11 5 11 10 0 6 -2 10 -4 10 -3
0 -8 -4 -11 -10z"/>
<path d="M7310 14594 c0 -8 5 -12 10 -9 6 3 10 10 10 16 0 5 -4 9 -10 9 -5 0
-10 -7 -10 -16z"/>
<path d="M7260 14539 c0 -5 5 -7 10 -4 6 3 10 8 10 11 0 2 -4 4 -10 4 -5 0
-10 -5 -10 -11z"/>
<path d="M7265 14450 c-3 -5 -1 -10 4 -10 6 0 11 5 11 10 0 6 -2 10 -4 10 -3
0 -8 -4 -11 -10z"/>
<path d="M7310 14300 c0 -5 5 -10 11 -10 5 0 7 5 4 10 -3 6 -8 10 -11 10 -2 0
-4 -4 -4 -10z"/>
<path d="M8241 15039 c-46 -181 -80 -333 -76 -337 10 -11 298 -14 314 -3 11 7
4 47 -38 222 -85 349 -104 423 -110 437 -4 6 -44 -137 -90 -319z"/>
<path d="M8080 15130 c0 -5 5 -10 11 -10 5 0 7 5 4 10 -3 6 -8 10 -11 10 -2 0
-4 -4 -4 -10z"/>
<path d="M8575 15040 c-3 -5 -1 -10 4 -10 6 0 11 5 11 10 0 6 -2 10 -4 10 -3
0 -8 -4 -11 -10z"/>
<path d="M8080 15030 c-8 -5 -10 -10 -5 -10 6 0 17 5 25 10 8 5 11 10 5 10 -5
0 -17 -5 -25 -10z"/>
<path d="M8095 15000 c-3 -5 1 -10 9 -10 9 0 16 5 16 10 0 6 -4 10 -9 10 -6 0
-13 -4 -16 -10z"/>
<path d="M8276 14581 c-9 -15 23 -36 35 -24 8 8 5 14 -9 22 -12 6 -23 7 -26 2z"/>
<path d="M8640 14522 c0 -5 7 -16 16 -23 14 -12 16 -11 13 5 -4 20 -29 35 -29
18z"/>
<path d="M7910 14480 c0 -5 5 -10 10 -10 6 0 10 5 10 10 0 6 -4 10 -10 10 -5
0 -10 -4 -10 -10z"/>
<path d="M8716 14311 c-4 -7 -5 -15 -2 -18 9 -9 19 4 14 18 -4 11 -6 11 -12 0z"/>
<path d="M7890 14170 c0 -5 5 -10 10 -10 6 0 10 5 10 10 0 6 -4 10 -10 10 -5
0 -10 -4 -10 -10z"/>
<path d="M7830 14150 c0 -5 5 -10 10 -10 6 0 10 5 10 10 0 6 -4 10 -10 10 -5
0 -10 -4 -10 -10z"/>
<path d="M10100 15320 c0 -5 5 -10 11 -10 5 0 7 5 4 10 -3 6 -8 10 -11 10 -2
0 -4 -4 -4 -10z"/>
<path d="M10560 14844 c0 -8 5 -12 10 -9 6 4 8 11 5 16 -9 14 -15 11 -15 -7z"/>
<path d="M10595 14820 c-3 -5 -1 -10 4 -10 6 0 11 5 11 10 0 6 -2 10 -4 10 -3
0 -8 -4 -11 -10z"/>
<path d="M10835 14440 c3 -5 8 -10 11 -10 2 0 4 5 4 10 0 6 -5 10 -11 10 -5 0
-7 -4 -4 -10z"/>
<path d="M13085 14601 c-6 -11 9 -23 19 -14 9 9 7 23 -3 23 -6 0 -12 -4 -16
-9z"/>
<path d="M13040 14539 c0 -5 5 -7 10 -4 6 3 10 8 10 11 0 2 -4 4 -10 4 -5 0
-10 -5 -10 -11z"/>
<path d="M13045 14450 c-3 -5 -1 -10 4 -10 6 0 11 5 11 10 0 6 -2 10 -4 10 -3
0 -8 -4 -11 -10z"/>
<path d="M13090 14300 c0 -5 5 -10 11 -10 5 0 7 5 4 10 -3 6 -8 10 -11 10 -2
0 -4 -4 -4 -10z"/>
<path d="M13536 15545 c-3 -8 -1 -15 4 -15 6 0 10 7 10 15 0 8 -2 15 -4 15 -2
0 -6 -7 -10 -15z"/>
<path d="M15310 15537 c0 -15 4 -27 9 -27 6 0 8 10 6 21 -6 33 -15 36 -15 6z"/>
<path d="M15170 15520 c0 -5 4 -10 9 -10 6 0 13 5 16 10 3 6 -1 10 -9 10 -9 0
-16 -4 -16 -10z"/>
<path d="M15040 14866 c0 -9 5 -16 10 -16 6 0 10 4 10 9 0 6 -4 13 -10 16 -5
3 -10 -1 -10 -9z"/>
<path d="M14786 14821 c-19 -7 -19 -8 2 -13 15 -4 22 -2 22 8 0 8 -1 14 -2 13
-2 0 -12 -4 -22 -8z"/>
<path d="M14790 14430 c0 -5 7 -10 16 -10 8 0 12 5 9 10 -3 6 -10 10 -16 10
-5 0 -9 -4 -9 -10z"/>
<path d="M14765 14379 c-4 -6 -5 -12 -2 -15 2 -3 7 2 10 11 7 17 1 20 -8 4z"/>
<path d="M14807 14353 c-8 -7 11 -33 23 -33 5 0 6 9 3 20 -5 20 -15 25 -26 13z"/>
<path d="M14855 14210 c3 -5 8 -10 11 -10 2 0 4 5 4 10 0 6 -5 10 -11 10 -5 0
-7 -4 -4 -10z"/>
<path d="M14796 14202 c-3 -6 1 -13 10 -16 23 -9 28 -2 10 13 -8 7 -17 8 -20
3z"/>
<path d="M2340 14931 c0 -6 5 -13 10 -16 6 -3 10 1 10 9 0 9 -4 16 -10 16 -5
0 -10 -4 -10 -9z"/>
<path d="M2580 14891 c0 -5 5 -13 10 -16 6 -3 10 -2 10 4 0 5 -4 13 -10 16 -5
3 -10 2 -10 -4z"/>
<path d="M2268 14824 c-5 -4 -8 -205 -8 -447 l0 -439 88 4 c109 6 175 33 235
97 74 79 82 114 82 351 0 204 0 205 -28 262 -32 65 -90 122 -156 151 -47 21
-199 36 -213 21z"/>
<path d="M2150 14485 c0 -8 2 -15 4 -15 2 0 6 7 10 15 3 8 1 15 -4 15 -6 0
-10 -7 -10 -15z"/>
<path d="M3451 14542 c-35 -142 -66 -263 -68 -269 -4 -10 28 -13 137 -13 126
0 141 2 136 16 -3 9 -34 127 -68 262 -34 136 -64 250 -67 254 -3 3 -35 -109
-70 -250z"/>
<path d="M3320 14530 c-9 -6 -10 -10 -3 -10 6 0 15 5 18 10 8 12 4 12 -15 0z"/>
<path d="M3335 14510 c-3 -5 -1 -10 4 -10 6 0 11 5 11 10 0 6 -2 10 -4 10 -3
0 -8 -4 -11 -10z"/>
<path d="M3480 14150 c0 -5 7 -10 15 -10 8 0 15 5 15 10 0 6 -7 10 -15 10 -8
0 -15 -4 -15 -10z"/>
<path d="M3770 14110 c0 -5 7 -10 16 -10 8 0 12 5 9 10 -3 6 -10 10 -16 10 -5
0 -9 -4 -9 -10z"/>
<path d="M3830 13929 c0 -5 5 -7 10 -4 6 3 10 8 10 11 0 2 -4 4 -10 4 -5 0
-10 -5 -10 -11z"/>
<path d="M9260 10325 c0 -30 4 -45 13 -45 37 0 51 62 18 80 -30 15 -31 14 -31
-35z"/>
<path d="M9260 10191 c0 -42 3 -51 18 -51 24 0 42 19 42 45 0 27 -11 41 -37
49 -22 7 -23 5 -23 -43z"/>
<path d="M11086 10362 c-3 -3 -6 -25 -6 -49 0 -37 3 -43 20 -43 23 0 41 37 33
68 -5 20 -36 36 -47 24z"/>
<path d="M9260 9736 c0 -118 4 -129 38 -108 9 6 12 36 10 113 -3 99 -4 104
-25 107 -23 3 -23 2 -23 -112z"/>
<path d="M9485 9838 c-3 -8 -4 -59 -3 -114 3 -91 5 -99 23 -99 19 0 20 7 20
110 0 97 -2 110 -18 113 -9 2 -19 -3 -22 -10z"/>
<path d="M9455 9317 c-3 -7 -4 -56 -3 -108 3 -93 3 -94 28 -94 l25 0 0 105 c0
101 -1 105 -23 108 -12 2 -24 -3 -27 -11z"/>
<path d="M9670 9285 c0 -41 2 -45 24 -45 28 0 41 28 32 66 -5 17 -13 24 -31
24 -23 0 -25 -4 -25 -45z"/>
<path d="M3690 7000 c0 -109 0 -110 24 -110 31 0 36 15 36 106 0 83 -11 114
-40 114 -19 0 -20 -7 -20 -110z"/>
<path d="M3917 7103 c-4 -3 -7 -50 -7 -103 0 -76 3 -100 15 -110 27 -22 36 2
36 96 1 125 1 124 -19 124 -10 0 -22 -3 -25 -7z"/>
<path d="M4130 7065 c0 -41 2 -45 25 -45 18 0 26 7 31 24 8 31 -11 66 -36 66
-17 0 -20 -7 -20 -45z"/>
<path d="M4440 7001 c0 -61 3 -112 8 -114 4 -3 17 -1 30 4 21 8 22 14 22 102
0 96 -8 117 -42 117 -16 0 -18 -11 -18 -109z"/>
<path d="M4667 7104 c-4 -4 -7 -51 -7 -104 0 -75 4 -100 15 -110 12 -10 18
-10 30 0 13 10 15 33 13 114 -3 93 -5 101 -23 104 -12 2 -24 0 -28 -4z"/>
<path d="M3221 6591 c-8 -5 -11 -39 -9 -112 3 -96 4 -104 23 -104 19 0 20 8
23 106 2 83 0 108 -11 112 -8 3 -19 2 -26 -2z"/>
<path d="M3437 6593 c-4 -3 -7 -55 -7 -115 0 -108 0 -109 23 -106 21 3 22 8
25 102 2 64 -1 103 -9 112 -13 15 -22 18 -32 7z"/>
<path d="M3640 6481 c0 -102 2 -111 19 -111 34 0 42 23 39 121 l-3 94 -27 3
-28 3 0 -110z"/>
<path d="M3860 6544 c0 -41 2 -45 21 -42 29 4 43 29 35 61 -5 20 -13 27 -31
27 -23 0 -25 -4 -25 -46z"/>
<path d="M4280 6534 c0 -17 -3 -46 -6 -63 -6 -27 -4 -31 15 -31 19 0 20 4 14
48 -7 60 -22 90 -23 46z"/>
<path d="M4476 6593 c-3 -3 -6 -55 -6 -115 0 -108 0 -109 23 -106 21 3 22 8
25 105 2 92 1 103 -16 112 -11 6 -22 7 -26 4z"/>
<path d="M4132 5968 c3 -105 4 -113 23 -113 19 0 20 8 23 113 l3 112 -26 0
-26 0 3 -112z"/>
<path d="M3581 5510 c-1 -8 -6 -34 -10 -57 -7 -38 -6 -43 10 -43 15 0 19 7 18
33 -1 36 -16 91 -18 67z"/>
<path d="M4030 5505 c0 -11 -3 -37 -6 -57 -6 -34 -4 -38 15 -38 19 0 21 4 15
43 -8 50 -23 84 -24 52z"/>
<path d="M4220 5515 c0 -42 2 -46 23 -43 19 3 22 9 22 43 0 34 -3 40 -22 43
-21 3 -23 -1 -23 -43z"/>
<path d="M4440 5450 c0 -110 0 -111 23 -108 21 3 22 7 22 108 0 101 -1 105
-22 108 -23 3 -23 2 -23 -108z"/>
<path d="M8590 3370 c0 -54 10 -61 48 -34 27 18 28 45 4 67 -36 32 -52 22 -52
-33z"/>
<path d="M8820 3370 c0 -53 10 -61 51 -40 42 23 16 90 -35 90 -12 0 -16 -11
-16 -50z"/>
<path d="M8590 3155 c0 -52 1 -55 25 -55 34 0 61 41 45 69 -11 21 -40 41 -59
41 -7 0 -11 -23 -11 -55z"/>
<path d="M8820 3155 c0 -51 2 -55 23 -55 58 0 74 80 21 100 -41 16 -44 13 -44
-45z"/>
<path d="M7490 2835 c0 -25 4 -35 13 -32 6 2 12 16 12 32 0 16 -6 30 -12 33
-9 2 -13 -8 -13 -33z"/>
<path d="M7490 2708 l1 -43 18 22 c21 25 17 63 -5 63 -10 0 -14 -13 -14 -42z"/>
<path d="M7840 2830 c0 -40 5 -46 26 -32 27 18 19 72 -11 72 -11 0 -15 -12
-15 -40z"/>
<path d="M8212 2833 c3 -41 23 -51 42 -20 13 21 -2 50 -28 55 -14 3 -17 -3
-14 -35z"/>
<path d="M8437 2801 c-11 -54 -8 -81 8 -81 16 0 19 44 6 90 -7 24 -7 24 -14
-9z"/>
<path d="M8860 2770 c0 -49 3 -90 8 -90 25 1 52 49 52 96 0 34 -27 84 -45 84
-12 0 -15 -17 -15 -90z"/>
<path d="M9120 2835 c0 -23 5 -35 14 -35 19 0 28 28 16 51 -16 30 -30 23 -30
-16z"/>
<path d="M9120 2715 c0 -37 22 -49 34 -19 9 23 -2 54 -20 54 -9 0 -14 -11 -14
-35z"/>
<path d="M9310 2830 c0 -33 3 -41 16 -38 9 2 22 11 28 21 13 20 -2 50 -28 55
-13 3 -16 -5 -16 -38z"/>
<path d="M9537 2810 c-12 -45 -8 -90 8 -90 16 0 18 30 6 85 l-7 30 -7 -25z"/>
</g>
</svg>
