<?xml version="1.0" standalone="no"?>
<!DOCTYPE svg PUBLIC "-//W3C//DTD SVG 20010904//EN"
 "http://www.w3.org/TR/2001/REC-SVG-20010904/DTD/svg10.dtd">
<svg version="1.0" xmlns="http://www.w3.org/2000/svg"
 width="500.000000pt" height="500.000000pt" viewBox="0 0 500.000000 500.000000"
 preserveAspectRatio="xMidYMid meet">

<g transform="translate(0.000000,500.000000) scale(0.100000,-0.100000)"
fill="#000000" stroke="none">
<path d="M3770 3682 c0 -4 11 -99 24 -212 13 -113 27 -232 30 -265 3 -33 15
-143 27 -245 27 -245 52 -481 90 -845 17 -165 34 -303 38 -307 11 -13 154 115
186 166 25 41 31 62 33 126 4 71 1 84 -45 200 -42 110 -48 134 -48 200 0 66 6
89 48 193 52 131 61 206 33 285 -23 63 -52 96 -161 182 -148 115 -159 136
-194 348 -11 67 -28 136 -36 152 -15 29 -25 38 -25 22z"/>
<path d="M2340 3634 c-139 -37 -305 -157 -389 -282 -20 -30 -49 -73 -64 -95
-52 -78 -67 -150 -65 -320 l1 -152 -41 -122 c-81 -239 -77 -445 12 -598 32
-54 111 -127 162 -150 40 -17 42 -20 47 -70 6 -61 28 -100 68 -121 74 -38 146
4 157 92 l7 51 150 -44 c83 -24 169 -54 191 -65 53 -27 106 -20 148 21 25 23
302 181 319 181 2 0 7 -17 11 -38 9 -57 55 -97 112 -97 39 0 50 5 76 34 29 32
30 36 26 116 -3 82 -3 82 29 109 45 38 98 122 117 185 20 69 21 190 1 276 -19
80 -49 149 -114 264 -54 95 -74 156 -91 276 -18 134 -60 208 -193 341 -95 95
-125 117 -197 152 -47 23 -112 49 -145 57 -76 19 -261 19 -335 -1z m308 -58
c111 -24 272 -118 292 -171 5 -12 28 -36 51 -51 118 -80 190 -285 144 -413
-15 -45 -12 -50 17 -24 18 16 19 16 25 -7 7 -25 33 -77 102 -203 54 -98 81
-197 81 -304 0 -112 -25 -178 -97 -252 -30 -31 -58 -62 -62 -69 -4 -7 -4 -43
1 -79 9 -74 -6 -113 -42 -113 -27 0 -41 31 -52 119 -5 42 -13 80 -18 85 -5 5
-20 -1 -36 -13 -32 -26 -82 -28 -91 -4 -5 12 6 28 37 54 24 21 41 41 38 45 -4
3 -36 -4 -72 -16 -70 -23 -86 -21 -86 11 0 12 17 30 48 49 60 37 93 63 71 57
-9 -3 -41 -8 -71 -12 -45 -6 -58 -4 -72 10 -16 16 -16 18 0 36 13 14 31 19 70
19 93 0 151 18 195 60 29 28 40 45 37 62 -2 17 -9 22 -26 21 -19 -2 -22 2 -22
35 0 74 -20 157 -54 226 l-35 71 5 -81 c7 -87 -4 -124 -35 -124 -35 0 -62 44
-73 119 -6 39 -13 71 -17 71 -8 0 -31 -81 -31 -109 0 -11 -21 -31 -59 -53
l-59 -35 -17 36 c-18 36 -18 36 -26 11 -4 -14 -7 -40 -8 -57 -1 -18 -5 -33 -9
-33 -4 0 -34 -23 -65 -51 l-57 -51 -62 38 c-35 20 -64 38 -66 39 -1 1 -9 31
-16 66 -13 62 -14 63 -25 36 -6 -16 -11 -39 -11 -53 0 -13 -1 -24 -2 -24 -2 0
-34 11 -73 25 -70 24 -70 24 -95 84 -14 33 -30 64 -34 68 -5 4 -6 -31 -3 -78
7 -100 -5 -129 -53 -129 -36 0 -39 4 -54 98 -13 77 -13 77 -27 47 -10 -22 -14
-72 -14 -183 0 -140 -1 -152 -18 -152 -27 0 -18 -49 14 -72 37 -28 125 -34
187 -14 28 10 66 16 84 14 28 -2 33 -7 33 -28 0 -20 -8 -28 -35 -37 -19 -7
-52 -12 -72 -12 -21 -1 -38 -5 -38 -11 0 -5 17 -12 38 -15 93 -16 112 -25 112
-50 0 -27 -31 -38 -98 -34 -59 4 -61 -6 -5 -33 32 -17 48 -31 48 -44 0 -17 -7
-19 -65 -19 l-65 0 3 -74 c4 -98 -2 -121 -33 -121 -31 0 -37 10 -55 93 l-15
69 -66 36 c-113 63 -167 147 -190 292 -18 117 -4 239 42 372 21 62 39 127 39
145 0 17 3 38 6 47 5 13 9 12 25 -7 25 -30 24 -15 -7 62 -23 56 -26 76 -22
146 5 95 44 194 90 226 15 11 28 28 28 37 0 24 75 112 135 160 64 51 160 99
233 116 74 18 200 19 280 2z m251 -999 c8 -10 7 -17 -2 -26 -9 -10 -8 -11 8
-6 16 5 15 3 -4 -12 -61 -45 -61 -50 1 -17 39 20 69 30 73 25 3 -6 -45 -36
-107 -68 -153 -79 -171 -87 -162 -72 5 9 2 10 -12 4 -10 -4 -35 -10 -54 -13
l-35 -4 30 32 c30 32 228 170 244 170 5 0 13 -6 20 -13z m-516 -102 c45 -20
100 -47 121 -62 34 -22 37 -27 22 -35 -10 -6 -32 -7 -49 -4 -29 6 -30 5 -12
-8 11 -8 -53 7 -142 33 -89 25 -165 49 -169 54 -13 13 29 7 96 -13 82 -25 87
-24 25 5 -27 13 -44 24 -36 24 11 1 11 4 1 16 -18 22 -2 38 32 31 16 -3 66
-22 111 -41z m626 -30 l-3 -45 -40 1 c-23 1 -32 4 -21 6 20 5 35 20 35 36 0 7
-10 3 -62 -25 -13 -6 -36 -18 -53 -26 -16 -9 -43 -25 -60 -36 -16 -12 -31 -20
-33 -18 -1 1 -18 -5 -38 -13 -43 -18 -47 -18 -42 -4 3 10 295 168 311 169 4 0
7 -20 6 -45z m-674 -98 c139 -40 150 -45 152 -67 1 -14 0 -18 -3 -10 -3 10
-37 24 -92 39 -48 12 -114 31 -146 42 -33 10 -67 19 -77 19 -9 0 -23 7 -30 16
-12 15 -11 16 16 10 17 -4 98 -26 180 -49z m275 -17 c-8 -5 -26 -9 -40 -9 -23
1 -23 2 5 9 43 11 52 11 35 0z m30 -55 c0 -17 -44 -38 -69 -33 -9 2 -17 11
-19 20 -2 13 6 18 35 21 21 2 41 4 46 5 4 1 7 -5 7 -13z m17 -188 c19 -182 20
-177 -25 -177 l-39 0 -11 108 c-7 59 -15 124 -18 144 -6 37 -6 37 32 40 22 2
41 2 44 0 3 -2 10 -54 17 -115z m23 -231 c0 -16 -21 -26 -56 -26 -37 0 -30 28
9 33 17 2 35 5 40 5 4 1 7 -4 7 -12z"/>
<path d="M2611 3412 c-124 -68 -73 -262 69 -266 42 -1 80 21 114 67 38 52 18
154 -38 191 -41 26 -105 30 -145 8z m114 -48 c31 -20 49 -73 36 -107 -35 -91
-171 -67 -171 30 1 76 73 118 135 77z"/>
<path d="M2654 3315 c-18 -13 -18 -15 -2 -31 18 -18 48 -13 48 9 0 26 -25 38
-46 22z"/>
<path d="M2251 3373 c-90 -45 -97 -182 -12 -242 45 -33 82 -36 129 -12 69 35
101 125 68 189 -38 72 -117 100 -185 65z m118 -59 c41 -34 44 -92 6 -129 -35
-36 -96 -35 -124 1 -36 46 -24 125 22 144 38 15 64 11 96 -16z"/>
<path d="M2290 3274 c-11 -12 -10 -18 3 -31 8 -9 23 -13 31 -10 21 8 21 43 0
51 -21 8 -20 8 -34 -10z"/>
<path d="M3000 3280 c0 -13 7 -20 20 -20 13 0 20 7 20 20 0 13 -7 20 -20 20
-13 0 -20 -7 -20 -20z"/>
<path d="M2745 3145 c-52 -18 -92 -24 -158 -25 -51 0 -113 -7 -145 -16 -44
-13 -77 -15 -154 -10 -90 6 -99 5 -118 -14 -13 -13 -20 -31 -18 -47 3 -28 28
-45 28 -19 0 27 19 28 62 2 58 -33 117 -48 222 -55 l90 -6 8 -32 c12 -46 54
-76 98 -69 54 8 73 39 67 108 -5 56 -4 58 27 77 17 11 42 31 55 45 28 29 49
33 57 11 8 -20 24 -9 24 16 0 24 -34 59 -57 58 -10 0 -49 -11 -88 -24z m-86
-121 c27 -34 28 -90 2 -103 -21 -12 -44 7 -55 46 -4 13 -21 27 -42 35 l-35 13
28 7 c21 6 35 3 56 -12 30 -23 35 -16 11 18 -23 33 8 30 35 -4z"/>
<path d="M2955 3041 c-3 -11 -26 -47 -51 -81 -24 -33 -40 -60 -34 -60 21 0 80
72 90 111 11 42 7 68 -5 30z"/>
<path d="M2106 2926 c14 -48 90 -106 136 -106 19 1 17 4 -15 21 -20 11 -58 39
-82 63 -33 31 -44 37 -39 22z"/>
<path d="M2730 2798 c-30 -17 -49 -33 -42 -36 15 -5 102 45 102 58 0 13 3 14
-60 -22z"/>
<path d="M2309 2740 c13 -11 32 -20 44 -20 26 0 21 4 -28 24 l-40 16 24 -20z"/>
<path d="M1900 2664 c-11 -12 -10 -18 3 -32 15 -15 19 -15 32 -1 17 17 11 49
-10 49 -7 0 -18 -7 -25 -16z"/>
<path d="M2300 2466 c0 -2 7 -7 16 -10 8 -3 12 -2 9 4 -6 10 -25 14 -25 6z"/>
<path d="M1165 3476 c-4 -28 -3 -92 4 -150 50 -443 83 -743 147 -1336 14 -129
36 -332 49 -450 13 -118 27 -248 30 -287 6 -63 10 -73 26 -73 23 0 24 -17 -6
224 -56 458 -103 859 -125 1081 -6 61 -18 160 -25 220 -8 61 -24 200 -35 310
-52 484 -56 514 -65 461z"/>
<path d="M939 3132 c-109 -88 -139 -142 -139 -249 0 -66 6 -89 47 -191 41
-103 47 -126 47 -192 0 -66 -6 -89 -47 -193 -41 -103 -47 -129 -47 -190 0
-122 30 -167 203 -306 117 -94 133 -126 162 -320 16 -109 44 -188 76 -217 19
-17 20 -17 14 22 -7 49 -58 480 -85 719 -11 99 -31 277 -45 395 -13 118 -39
344 -57 503 -18 158 -35 287 -39 287 -4 0 -45 -30 -90 -68z"/>
<path d="M3243 1768 c-26 -12 -26 -20 -13 -143 4 -44 7 -81 5 -83 -2 -2 -23
47 -46 108 l-44 112 -43 -6 c-24 -3 -47 -8 -52 -11 -4 -3 -16 -48 -26 -100
-19 -101 -34 -124 -34 -51 0 25 -3 47 -8 49 -4 3 -28 3 -55 0 -44 -5 -47 -7
-47 -34 0 -23 5 -29 21 -29 11 0 17 -4 14 -10 -11 -17 -34 -11 -50 14 -14 20
-14 29 -4 48 16 31 28 38 67 38 29 0 32 3 32 30 0 65 -100 61 -159 -5 -26 -30
-31 -44 -31 -86 l0 -50 -24 18 c-21 16 -22 20 -10 34 35 39 2 97 -61 106 -22
3 -60 0 -84 -7 l-44 -12 7 -90 c12 -155 8 -148 83 -148 80 0 121 19 130 61 5
29 6 29 20 9 38 -54 122 -63 183 -20 16 12 30 17 30 11 0 -6 20 -11 45 -11 34
0 45 4 45 15 0 26 31 30 49 7 14 -18 21 -20 52 -13 20 5 59 6 87 3 28 -2 66
-2 85 2 69 13 99 74 57 116 -16 16 -18 25 -10 40 30 55 -13 100 -94 99 -28 0
-61 -5 -73 -11z m92 -78 c0 -7 -6 -15 -12 -17 -8 -3 -13 4 -13 17 0 13 5 20
13 18 6 -3 12 -11 12 -18z m-216 -82 c1 -5 -3 -8 -9 -8 -5 0 -10 12 -9 28 0
24 1 25 9 7 5 -11 9 -23 9 -27z m-449 23 c0 -5 -7 -14 -15 -21 -13 -10 -15 -9
-15 9 0 12 6 21 15 21 8 0 15 -4 15 -9z m675 -21 c0 -8 -8 -16 -17 -18 -13 -2
-18 3 -18 18 0 15 5 20 18 18 9 -2 17 -10 17 -18z m-665 -61 c0 -12 -29 -24
-37 -16 -3 4 -3 13 0 21 6 16 37 11 37 -5z"/>
<path d="M2372 1674 c-31 -21 -52 -66 -52 -110 0 -51 53 -104 105 -104 73 0
114 40 115 113 0 27 -5 57 -10 68 -24 44 -114 64 -158 33z m88 -84 c20 -38
-19 -77 -48 -48 -13 13 -16 50 -5 61 13 14 43 6 53 -13z"/>
<path d="M2165 1674 c-7 -3 -7 -46 -1 -127 4 -67 9 -123 11 -125 1 -1 34 3 74
9 l71 12 0 38 c0 38 -1 39 -35 39 l-35 0 0 80 0 80 -37 -1 c-21 0 -43 -2 -48
-5z"/>
<path d="M2001 1652 c-50 -27 -73 -75 -68 -141 3 -46 9 -59 36 -83 37 -33 93
-38 146 -12 42 19 45 28 37 95 -6 43 -11 54 -24 53 -10 0 -34 -1 -53 -2 -32
-2 -35 -5 -35 -31 0 -23 5 -31 23 -34 19 -3 20 -4 4 -11 -24 -11 -47 10 -47
45 0 37 24 59 66 59 32 0 34 2 34 34 0 50 -54 63 -119 28z"/>
<path d="M3150 1362 c-71 -35 -65 -116 11 -128 27 -5 36 -10 27 -15 -7 -5 -28
-6 -45 -3 -31 6 -33 5 -33 -24 0 -34 13 -42 69 -42 53 0 91 31 91 75 0 43 -22
65 -66 65 -21 0 -33 4 -29 10 3 6 22 10 41 10 31 0 34 3 34 29 0 44 -40 54
-100 23z"/>
<path d="M2885 1341 c-8 -13 7 -211 16 -217 4 -2 20 -2 34 2 19 5 25 13 25 32
l0 26 29 -28 c26 -25 30 -26 60 -14 l33 13 -37 48 -37 48 28 40 c23 34 25 42
13 50 -27 17 -59 10 -71 -16 -6 -14 -15 -25 -20 -25 -4 0 -8 11 -8 25 0 21 -5
25 -29 25 -17 0 -32 -4 -36 -9z"/>
<path d="M2698 1315 c-36 -20 -48 -44 -48 -95 0 -70 67 -116 131 -90 41 17 59
47 59 97 0 78 -76 125 -142 88z m60 -64 c21 -13 11 -56 -13 -56 -20 0 -31 25
-21 51 6 16 15 17 34 5z"/>
<path d="M2457 1289 c-29 -17 -49 -68 -43 -105 8 -39 57 -84 91 -84 99 0 144
127 66 187 -19 15 -89 16 -114 2z m78 -89 c0 -33 -40 -41 -50 -11 -9 28 2 43
28 39 16 -2 22 -10 22 -28z"/>
<path d="M2211 1279 c-23 -9 -23 -12 -17 -87 12 -135 10 -132 67 -132 27 0 65
7 84 14 31 13 35 19 35 50 0 22 -6 38 -16 44 -13 7 -14 13 -5 30 16 30 14 40
-14 67 -26 27 -87 33 -134 14z m81 -74 c0 -5 -5 -11 -11 -13 -6 -2 -11 4 -11
13 0 9 5 15 11 13 6 -2 11 -8 11 -13z m3 -75 c-5 -8 -11 -8 -17 -2 -6 6 -7 16
-3 22 5 8 11 8 17 2 6 -6 7 -16 3 -22z"/>
</g>
</svg>
